<svg height="496pt" viewBox="0 0 496 496" width="496pt" xmlns="http://www.w3.org/2000/svg"><path d="m352.328125 359.097656-32.328125-23.097656-32.695312 23.558594 16.695312 32.441406-8 64h48l-8-64zm0 0" fill="#f0bc5e"/><path d="m469.65625 274.34375c-19.128906-19.128906-29.65625-44.550781-29.65625-71.601562v-82.742188c0-66.167969-53.832031-120-120-120s-120 53.832031-120 120v73.886719c0 32.761719-12.761719 63.546875-35.910156 86.714843l3.140625 4.320313 53.082031 28.308594 51.6875-17.230469v-32h.113281c-15.394531-11.542969-26.539062-28.449219-30.503906-48h-1.609375c-17.671875 0-32-14.328125-32-32s14.328125-32 32-32v-16c20.488281 0 40.136719-8.136719 54.625-22.625l1.375-1.375v24c20.488281 0 40.136719-8.136719 54.625-22.625l1.375-1.375v24h3.152344c18.023437 0 34.847656-9.007812 44.847656-24v40c17.671875 0 32 14.328125 32 32s-14.328125 32-32 32h-1.609375c-3.964844 19.550781-15.109375 36.457031-30.503906 48h.113281v32l43.824219 14.609375c37.617187-5.257813 56.910156-24.023437 57.832031-24.953125l5.65625-5.65625zm0 0" fill="#f0bc5e"/><path d="m496 370.59375c0-24.144531-15.390625-45.496094-38.289062-53.121094l-81.710938-27.242187v-22.40625c13.6875-11.320313 23.824219-26.726563 28.710938-44.304688 19.816406-2.359375 35.289062-19.078125 35.289062-39.519531 0-19.3125-13.769531-35.472656-32-39.191406v-40.808594h-16v5.351562c-7.671875 10.382813-19.238281 17.039063-32 18.382813v-35.054687l-15.03125 15.03125c-11.167969 11.167968-25.503906 18.066406-40.96875 19.832031v-34.855469l-15.03125 15.03125c-11.167969 11.167969-25.503906 18.007812-40.96875 19.785156v-23.503906h-16v40.808594c-18.230469 3.71875-32 19.871094-32 39.191406 0 20.441406 15.472656 37.160156 35.289062 39.519531 4.886719 17.578125 15.023438 32.984375 28.710938 44.304688v22.40625l-42.953125 14.320312-93.046875-49.621093-113.488281 60.527343c-8.953125 4.773438-14.511719 14.046875-14.511719 24.191407v.9375c0 15.117187 12.296875 27.414062 27.414062 27.414062 4.226563 0 8.472657-1 12.265626-2.886719l.320312-.160156v131.046875h176v-32h280zm-90.640625 43.863281-40.261719 33.542969h-2.410156l34.898438-133.703125 18.414062 6.136719v51.285156l-27.097656 18.066406zm-189.359375-43.402343v-6.101563l.320312.160156h.007813c3.792969 1.886719 8.03125 2.886719 12.257813 2.886719 7.277343 0 13.863281-2.894531 18.773437-7.542969l29.214844 87.542969h-1.671875l-40.261719-33.542969 17.039063-25.554687zm0 17.890624 12.320312 6.160157-12.320312 18.480469zm55.015625-8.128906 48.984375-34.992187 44.511719 31.800781-18.367188 70.375h-52.710937zm111.351563-71.59375-13.527344 51.832032-35.761719-25.542969 36.625-30.511719zm41.632812-125.222656c0 10.535156-6.871094 19.414062-16.335938 22.632812.167969-2.199218.335938-4.394531.335938-6.632812v-38.527344c9.289062 3.3125 16 12.113282 16 22.527344zm-208 0c0-10.414062 6.710938-19.214844 16-22.527344v38.527344c0 2.238281.167969 4.433594.335938 6.632812-9.464844-3.21875-16.335938-12.097656-16.335938-22.632812zm32 16v-56.414062c14.441406-1.339844 28.136719-6.242188 40-14.355469v14.769531h8c17.375 0 33.960938-5.167969 48-14.769531v14.769531h11.160156c13.503906 0 26.328125-4.433594 36.839844-12.230469v68.230469c0 39.703125-32.296875 72-72 72s-72-32.296875-72-72zm72 88c14.40625 0 27.984375-3.550781 40-9.710938v13.957032l-40 33.339844-40-33.339844v-13.957032c12.015625 6.160157 25.59375 9.710938 40 9.710938zm-49.703125 17 36.625 30.511719-41.203125 29.425781-10.4375-31.289062c-1.722656-7.695313-6.648438-14.382813-13.792969-18.199219l-.976562-.519531zm-237.769531 45.800781c-1.582032.785157-3.351563 1.199219-5.113282 1.199219-6.292968 0-11.414062-5.121094-11.414062-11.414062v-.9375c0-4.222657 2.320312-8.089844 6.046875-10.074219l105.953125-56.503907 105.953125 56.503907c3.726563 1.984375 6.046875 5.851562 6.046875 10.074219v.9375c0 6.292968-5.121094 11.414062-11.414062 11.414062-1.769532 0-3.53125-.414062-5.113282-1.199219l-95.472656-47.746093zm23.472656 129.199219v-123.046875l72-36 72 36v123.046875zm160-60.257812 33.894531 28.257812h-33.894531zm264 28.257812h-89.894531l36.535156-30.457031-15.542969-23.328125 20.902344-13.933594v-54.511719l20.648438 6.878907c16.359374 5.457031 27.351562 20.703124 27.351562 37.945312zm0 0"/><path d="m368 168c0 4.417969-3.582031 8-8 8s-8-3.582031-8-8 3.582031-8 8-8 8 3.582031 8 8zm0 0"/><path d="m288 168c0 4.417969-3.582031 8-8 8s-8-3.582031-8-8 3.582031-8 8-8 8 3.582031 8 8zm0 0"/><path d="m320 248c17.648438 0 32-14.351562 32-32h-16c0 8.824219-7.175781 16-16 16s-16-7.175781-16-16h-16c0 17.648438 14.351562 32 32 32zm0 0"/><path d="m128 384c4.414062 0 8 3.585938 8 8h16c0-10.414062-6.710938-19.214844-16-22.527344v-17.472656h-16v17.472656c-9.289062 3.3125-16 12.113282-16 22.527344 0 13.230469 10.769531 24 24 24 4.414062 0 8 3.585938 8 8s-3.585938 8-8 8-8-3.585938-8-8h-16c0 10.414062 6.710938 19.214844 16 22.527344v17.472656h16v-17.472656c9.289062-3.3125 16-12.113282 16-22.527344 0-13.230469-10.769531-24-24-24-4.414062 0-8-3.585938-8-8s3.585938-8 8-8zm0 0"/></svg>