<svg height="496pt" viewBox="0 0 496 496" width="496pt" xmlns="http://www.w3.org/2000/svg"><g fill="#f0bc5e"><path d="m176 64h64v40h-64zm0 0"/><path d="m256 64h64v40h-64zm0 0"/><path d="m352 160h48v56h-48zm0 0"/><path d="m416 160h48v56h-48zm0 0"/><path d="m352 272h48v56h-48zm0 0"/><path d="m416 272h48v56h-48zm0 0"/><path d="m96 160h48v56h-48zm0 0"/><path d="m32 160h48v56h-48zm0 0"/><path d="m96 272h48v56h-48zm0 0"/><path d="m32 272h48v56h-48zm0 0"/></g><path d="m480 128v-32h-128v-64h-16v-32h-176v32h-16v64h-128v32h-16v328c0 22.054688 17.945312 40 40 40h416c22.054688 0 40-17.945312 40-40v-328zm0 224h-16v16h16v55.960938c-7.992188-6.066407-18.257812-9.183594-29.199219-7.578126-9.074219-19.640624-28.648437-32.382812-50.800781-32.382812s-41.726562 12.742188-50.800781 32.382812c-1.75-.253906-3.480469-.382812-5.199219-.382812-2.734375 0-5.414062.28125-8 .808594v-48.808594h16v-16h-16v-16h144zm-167.792969 128h-24.207031v-96h16v-16h-112v16h16v96h-24.207031c5.078125-6.703125 8.207031-14.960938 8.207031-24 0-13.023438-6.328125-24.703125-16-32.039062v-311.960938h144v312.207031c-9.65625 7.3125-16 18.785157-16 31.792969 0 9.039062 3.128906 17.296875 8.207031 24zm-40.207031-96v96h-48v-96zm-256-32v-16h144v16h-16v16h16v48.695312c-4.207031-.832031-8.648438-.976562-13.199219-.3125-9.074219-19.640624-28.648437-32.382812-50.800781-32.382812s-41.726562 12.742188-50.800781 32.382812c-10.933594-1.621093-21.207031 1.496094-29.199219 7.570313v-55.953125h16v-16zm0-112v-16h144v16h-16v16h16v64h-144v-64h16v-16zm464-96v64h-144v-64zm0 96h-16v16h16v64h-144v-64h16v-16h-16v-16h144zm-128-128h112v16h-128v-16zm-176-96h144v16h-144zm-16 32h176v48h-176zm-128 64h128v16h-128zm128 32v64h-144v-64zm-120 336c-13.230469 0-24-10.769531-24-24s10.769531-24 24-24c2.351562 0 4.832031.449219 7.59375 1.375l7.765625 2.625 2.425781-7.832031c5.207032-16.847657 20.566406-28.167969 38.214844-28.167969s33.007812 11.320312 38.214844 28.160156l2.425781 7.839844 7.765625-2.617188c2.761719-.933593 5.242188-1.382812 7.59375-1.382812 13.230469 0 24 10.769531 24 24s-10.769531 24-24 24zm416 0h-112c-13.230469 0-24-10.769531-24-24s10.769531-24 24-24c2.351562 0 4.832031.449219 7.59375 1.375l7.765625 2.625 2.425781-7.832031c5.207032-16.847657 20.566406-28.167969 38.214844-28.167969s33.007812 11.320312 38.214844 28.160156l2.425781 7.839844 7.765625-2.617188c2.761719-.933593 5.242188-1.382812 7.59375-1.382812 13.230469 0 24 10.769531 24 24s-10.769531 24-24 24zm0 0"/><path d="m368 352h80v16h-80zm0 0"/><path d="m48 352h80v16h-80zm0 0"/><path d="m368 240h80v16h-80zm0 0"/><path d="m48 240h80v16h-80zm0 0"/><path d="m192 336h112v-208h-112zm16-48h32v32h-32zm48-64v-32h32v32zm32 16v32h-32v-32zm-48-16h-32v-32h32zm0 16v32h-32v-32zm16 80v-32h32v32zm32-144h-32v-32h32zm-48-32v32h-32v-32zm0 0"/></svg>