<svg height="496pt" viewBox="-32 0 496 496" width="496pt" xmlns="http://www.w3.org/2000/svg"><path d="m64 248.648438v-40.648438h-40c-13.230469 0-24-10.769531-24-24v-64c0-13.230469 10.769531-24 24-24h54.664062v16h-54.664062c-4.40625 0-8 3.59375-8 8v64c0 4.40625 3.59375 8 8 8h56v23.351562l29.191406-23.351562h42.808594c4.40625 0 8-3.59375 8-8v-64c0-4.40625-3.59375-8-8-8h-54.664062v-16h54.664062c13.230469 0 24 10.769531 24 24v64c0 13.230469-10.769531 24-24 24h-37.191406zm0 0"/><path d="m368 248.648438-50.808594-40.648438h-37.191406c-13.230469 0-24-10.769531-24-24v-48c0-13.230469 10.769531-24 24-24h52.800781v16h-52.800781c-4.40625 0-8 3.59375-8 8v48c0 4.40625 3.59375 8 8 8h42.808594l29.191406 23.351562v-23.351562h56c4.40625 0 8-3.59375 8-8v-48c0-4.40625-3.59375-8-8-8h-48v-16h48c13.230469 0 24 10.769531 24 24v48c0 13.230469-10.769531 24-24 24h-40zm0 0"/><g fill="#f0bc5e"><path d="m340.945312 176h-21.792968l8-80h-25.90625l28.800781-96h49.058594l-16 48h41.839843zm0 0"/><path d="m96 256c-39.703125 0-72 32.296875-72 72v32h8c0-13.257812 10.742188-24 24-24 15.648438 0 30.953125-4.632812 43.96875-13.3125l4.03125-2.6875 4.6875 4.6875c7.242188 7.242188 17.066406 11.3125 27.3125 11.3125 13.257812 0 24 10.742188 24 24h8v-32c0-39.703125-32.296875-72-72-72zm0 0"/><path d="m268.769531 440.214844 43.230469-16.214844v-16h.199219c-7.742188-5.769531-13.398438-14.183594-15.390625-24h-.808594c-13.257812 0-24-10.742188-24-24s10.742188-24 24-24h80c13.257812 0 24 10.742188 24 24s-10.742188 24-24 24h-.808594c-1.992187 9.816406-7.648437 18.230469-15.390625 24h.199219v16l43.230469 16.214844c1.671875.625 3.257812 1.402344 4.769531 2.28125v-114.496094c0-39.703125-32.296875-72-72-72s-72 32.296875-72 72v114.488281c1.511719-.871093 3.097656-1.648437 4.769531-2.273437zm0 0"/></g><path d="m166.039062 432.71875-38.039062-14.261719v-6.777343c6.054688-5.433594 10.71875-12.359376 13.398438-20.222657 15.074218-2.585937 26.601562-15.664062 26.601562-31.457031 0-17.648438-14.351562-32-32-32-8.175781 0-15.871094-3.183594-21.65625-8.96875l-9.328125-9.328125-9.488281 6.328125c-11.742188 7.824219-25.40625 11.96875-39.527344 11.96875-17.648438 0-32 14.351562-32 32 0 15.792969 11.527344 28.871094 26.601562 31.457031 2.679688 7.855469 7.34375 14.78125 13.398438 20.222657v6.777343l-38.039062 14.261719c-15.527344 5.824219-25.960938 20.875-25.960938 37.457031v25.824219h192v-25.824219c0-16.582031-10.433594-31.632812-25.960938-37.457031zm-14.039062-72.71875c0 5.894531-3.238281 11-8 13.777344v-27.554688c4.761719 2.777344 8 7.882813 8 13.777344zm-49.03125-29.71875.0625.0625c6.890625 6.886719 15.5625 11.3125 24.96875 12.9375v32.71875c0 17.648438-14.351562 32-32 32s-32-14.351562-32-32v-32.566406c13.847656-1.273438 27.175781-5.617188 38.96875-13.152344zm-62.96875 29.71875c0-5.894531 3.238281-11 8-13.777344v27.554688c-4.761719-2.777344-8-7.882813-8-13.777344zm56 64c5.617188 0 10.984375-1.023438 16-2.800781v.136719l-16 21.335937-16-21.335937v-.136719c5.015625 1.777343 10.382812 2.800781 16 2.800781zm80 56h-32v-16h-16v16h-64v-16h-16v16h-32v-9.824219c0-9.953125 6.257812-18.976562 15.574219-22.472656l37.625-14.101563 26.800781 35.734376 26.800781-35.734376 37.625 14.109376c9.316407 3.488281 15.574219 12.511718 15.574219 22.464843zm0 0"/><path d="m406.039062 432.71875-38.039062-14.261719v-6.777343c6.054688-5.433594 10.71875-12.359376 13.398438-20.222657 15.074218-2.585937 26.601562-15.664062 26.601562-31.457031 0-17.648438-14.351562-32-32-32h-80c-17.648438 0-32 14.351562-32 32 0 15.792969 11.527344 28.871094 26.601562 31.457031 2.679688 7.855469 7.34375 14.78125 13.398438 20.222657v6.777343l-38.039062 14.269531c-15.527344 5.816407-25.960938 20.867188-25.960938 37.449219v25.824219h192v-25.824219c0-16.582031-10.433594-31.632812-25.960938-37.457031zm-70.039062-24.71875c-17.648438 0-32-14.351562-32-32v-32h64v32c0 17.648438-14.351562 32-32 32zm56-48c0 5.894531-3.238281 11-8 13.777344v-27.554688c4.761719 2.777344 8 7.882813 8 13.777344zm-112 0c0-5.894531 3.238281-11 8-13.777344v27.554688c-4.761719-2.777344-8-7.882813-8-13.777344zm56 64c5.617188 0 10.984375-1.023438 16-2.800781v.136719l-16 21.335937-16-21.335937v-.136719c5.015625 1.777343 10.382812 2.800781 16 2.800781zm80 56h-32v-16h-16v16h-64v-16h-16v16h-32v-9.824219c0-9.953125 6.257812-18.976562 15.574219-22.472656l37.625-14.101563 26.800781 35.734376 26.800781-35.734376 37.625 14.109376c9.316407 3.488281 15.574219 12.511718 15.574219 22.464843zm0 0"/><path d="m88 184c-13.230469 0-24-10.769531-24-24s10.769531-24 24-24 24 10.769531 24 24-10.769531 24-24 24zm0 0" fill="#f0bc5e"/><path d="m88 128c-8.617188 0-15.921875-6.71875-16.632812-15.304688l-7.277344-87.390624c-.066406-.609376-.089844-1.273438-.089844-1.945313 0-12.878906 10.480469-23.359375 23.359375-23.359375h1.28125c12.878906 0 23.359375 10.480469 23.359375 23.359375 0 .671875-.023438 1.335937-.089844 2.007813l-7.277344 87.328124c-.710937 8.585938-8.015624 15.304688-16.632812 15.304688zm0 0" fill="#f0bc5e"/></svg>