<svg height="496pt" viewBox="0 0 496 496" width="496pt" xmlns="http://www.w3.org/2000/svg"><g fill="#f0bc5e"><path d="m384 400h64v88h-64zm0 0"/><path d="m288 400h64v88h-64zm0 0"/><path d="m450 224h-52l2-40h48zm0 0"/><path d="m331.199219 192h-54.398438l3.199219-40h48zm0 0"/></g><path d="m192 272h-64v64h64zm-16 48h-32v-32h32zm0 0"/><path d="m496 304h-32.488281l-8-128h-63.03125l-8 128h-33.242188l-16-160h-62.476562l-10.785157 107.785156 15.917969 1.589844 9.34375-93.375h33.523438l14.398437 144h-28.167968v16h173.007812v16h-208v-29.863281h-16v173.863281h-16v-128h-160v128h-16v-173.863281h-16v189.863281h432v-144h16zm-88.488281-112h32.96875l7 112h-46.96875zm-183.511719 224h-128v-16h128zm0 16v16h-128v-16zm0-64v16h-128v-16zm-128 96h128v16h-128zm368 16h-192v-128h192zm0 0"/><path d="m320 128h16c0-8 2.679688-11.566406 6.398438-16.519531 4.28125-5.695313 9.601562-12.800781 9.601562-26.128907 0-13.335937-5.328125-20.429687-9.601562-26.136718-3.71875-4.949219-6.398438-8.535156-6.398438-16.542969 0-8 2.679688-11.582031 6.398438-16.535156 4.273437-5.703125 9.601562-12.800781 9.601562-26.136719h-16c0 8-2.679688 11.585938-6.398438 16.535156-4.273437 5.703125-9.601562 12.808594-9.601562 26.136719 0 13.335937 5.328125 20.433594 9.601562 26.144531 3.710938 4.953125 6.398438 8.535156 6.398438 16.535156s-2.679688 11.570313-6.398438 16.519532c-4.273437 5.703125-9.601562 12.800781-9.601562 26.128906zm0 0"/><path d="m272 128h16c0-8 2.679688-11.566406 6.398438-16.519531 4.28125-5.695313 9.601562-12.800781 9.601562-26.128907 0-13.335937-5.328125-20.429687-9.601562-26.136718-3.71875-4.949219-6.398438-8.535156-6.398438-16.542969 0-8 2.679688-11.582031 6.398438-16.535156 4.273437-5.703125 9.601562-12.800781 9.601562-26.136719h-16c0 8-2.679688 11.585938-6.398438 16.535156-4.273437 5.703125-9.601562 12.808594-9.601562 26.136719 0 13.335937 5.328125 20.433594 9.601562 26.144531 3.710938 4.953125 6.398438 8.535156 6.398438 16.535156s-2.679688 11.570313-6.398438 16.519532c-4.273437 5.703125-9.601562 12.800781-9.601562 26.128906zm0 0"/><path d="m440 160h16c0-8 2.679688-11.566406 6.398438-16.519531 4.28125-5.695313 9.601562-12.800781 9.601562-26.128907 0-13.335937-5.328125-20.429687-9.601562-26.136718-3.71875-4.949219-6.398438-8.535156-6.398438-16.535156s2.679688-11.582032 6.398438-16.535157c4.273437-5.710937 9.601562-12.808593 9.601562-26.144531h-16c0 8-2.679688 11.585938-6.398438 16.535156-4.273437 5.703125-9.601562 12.808594-9.601562 26.136719 0 13.335937 5.328125 20.433594 9.601562 26.144531 3.710938 4.953125 6.398438 8.535156 6.398438 16.535156s-2.679688 11.570313-6.398438 16.519532c-4.273437 5.703125-9.601562 12.800781-9.601562 26.128906zm0 0"/><path d="m400 144h16c0-8 2.679688-11.566406 6.398438-16.519531 4.28125-5.695313 9.601562-12.800781 9.601562-26.128907 0-13.335937-5.328125-20.429687-9.601562-26.136718-3.71875-4.949219-6.398438-8.535156-6.398438-16.542969 0-8 2.679688-11.582031 6.398438-16.535156 4.273437-5.703125 9.601562-12.800781 9.601562-26.136719h-16c0 8-2.679688 11.585938-6.398438 16.535156-4.273437 5.703125-9.601562 12.808594-9.601562 26.136719 0 13.335937 5.328125 20.433594 9.601562 26.144531 3.710938 4.953125 6.398438 8.535156 6.398438 16.535156s-2.679688 11.570313-6.398438 16.519532c-4.273437 5.703125-9.601562 12.800781-9.601562 26.128906zm0 0"/><path d="m288 368h64v16h-64zm0 0"/><path d="m384 368h64v16h-64zm0 0"/><path d="m290.167969 328h-2.015625c-7.183594 0-14.136719-2.59375-19.542969-7.296875l-108.609375-94.117187-108.601562 94.125c-5.414063 4.695312-12.359376 7.289062-19.550782 7.289062h-2.015625c-16.449219 0-29.832031-13.382812-29.832031-29.832031 0-8.832031 3.871094-17.152344 10.625-22.832031l149.375-125.800782 149.382812 125.800782h-.007812c6.753906 5.679687 10.625 14 10.625 22.832031 0 16.449219-13.382812 29.832031-29.832031 29.832031zm0 0" fill="#f0bc5e"/></svg>