<svg height="497pt" viewBox="0 0 497 497.328" width="497pt" xmlns="http://www.w3.org/2000/svg"><path d="m184.164062 289.328125h48c8.839844 0 16 7.160156 16 16s-7.160156 16-16 16h-40c-4.417968 0-8 3.582031-8 8v17.054687c12.089844 23.570313 36.414063 38.945313 64 38.945313 13.320313 0 26.328126-3.664063 37.632813-10.601563l.902344-.558593c-3.941407-2.910157-6.535157-7.558594-6.535157-12.839844 0-8.640625 6.855469-15.625 15.414063-15.945313l.035156-.109374c-8.578125-.296876-15.449219-7.296876-15.449219-15.945313 0-8.839844 7.160157-16 16-16-8.839843 0-16-7.160156-16-16s7.160157-16 16-16h15.671876l.304687-1.183594-1.632813-2.824219c-7.078124-12.222656-17.734374-22.175781-30.34375-28.464843v-63.527344l-16-16 16-16v-24l-16-32h-32l-16 32v119.527344c-15.65625 7.800781-28.167968 21.199219-34.753906 37.464843l-.285156 3.3125c1.015625-.097656 2-.304687 3.039062-.304687zm0 0" fill="#f0bc5e"/><path d="m168.164062 161.328125h32v-16h-48v112h16zm0 0"/><path d="m328.164062 257.328125h16v-112h-48v16h32zm0 0"/><path d="m448.164062 183.480469h-16v225.847656h-97.296874c.832031-3.863281 1.296874-7.832031 1.296874-11.878906v-13.59375c9.289063-3.3125 16-12.113281 16-22.527344 0-6.167969-2.40625-11.742187-6.238281-16 3.839844-4.257813 6.238281-9.832031 6.238281-16s-2.40625-11.742187-6.238281-16c3.839844-4.257813 6.238281-9.832031 6.238281-16 0-13.230469-10.769531-24-24-24h-32c-13.230468 0-24 10.769531-24 24 0 6.167969 2.40625 11.742187 6.238282 16-3.839844 4.257813-6.238282 9.832031-6.238282 16s2.40625 11.742187 6.238282 16c-3.839844 4.257813-6.238282 9.832031-6.238282 16 0 13.230469 10.769532 24 24 24h24v12.121094c0 10.6875-4.167968 20.734375-11.71875 28.285156l-12.28125 12.28125v43.3125h-104v-42.808594l-23.230468-29.046875c-5.65625-7.058594-8.769532-15.9375-8.769532-24.976562v-63.167969c0-13.230469 10.769532-24 24-24h48c4.414063 0 8 3.582031 8 8 0 4.414063-3.585937 8-8 8h-40c-8.824218 0-16 7.175781-16 16v48h16v-48h40c13.230469 0 24-10.769531 24-24s-10.769531-24-24-24h-48c-22.054687 0-40 17.945313-40 40v63.167969c0 8.65625 2.175782 17.136718 5.992188 24.832031h-85.992188v-225.847656h-16v241.847656h112.953126l15.046874 18.808594v53.191406h136v-52.6875l7.59375-7.59375c3.535157-3.535156 6.496094-7.496094 8.925782-11.71875h119.480468zm-160 145.847656c0-4.417969 3.582032-8 8-8h32c4.414063 0 8 3.582031 8 8 0 4.414063-3.585937 8-8 8h-32c-4.417968 0-8-3.585937-8-8zm8-40h32c4.414063 0 8 3.582031 8 8 0 4.414063-3.585937 8-8 8h-32c-4.417968 0-8-3.585937-8-8 0-4.417969 3.582032-8 8-8zm-8 72c0-4.417969 3.582032-8 8-8h32c4.414063 0 8 3.582031 8 8 0 4.414063-3.585937 8-8 8h-32c-4.417968 0-8-3.585937-8-8zm0 0"/><path d="m463.226562 201.328125c-6.101562 0-12.070312-1.6875-17.261718-4.886719l-197.800782-121.746094-197.792968 121.746094c-5.199219 3.199219-11.167969 4.886719-17.269532 4.886719-18.160156 0-32.9375-14.777344-32.9375-32.9375v-.941406c0-11.503907 6.128907-22.328125 15.992188-28.242188l232.007812-139.207031 232.007813 139.199219c9.863281 5.921875 15.992187 16.746093 15.992187 28.25v.941406c0 18.160156-14.777343 32.9375-32.9375 32.9375zm0 0" fill="#f0bc5e"/></svg>