<svg height="496pt" viewBox="0 0 496 496" width="496pt" xmlns="http://www.w3.org/2000/svg"><g fill="#f0bc5e"><path d="m400 229.480469-98.039062-53.480469h-53.960938c-22.054688 0-40-17.945312-40-40v-96c0-22.054688 17.945312-40 40-40h208c22.054688 0 40 17.945312 40 40v96c0 22.054688-17.945312 40-40 40h-56zm0 0"/><path d="m485.65625 402.34375c-8.679688-8.679688-13.65625-20.695312-13.65625-32.96875v-41.375c0-39.703125-32.296875-72-72-72s-72 32.296875-72 72v41.375c0 12.273438-4.976562 24.289062-13.65625 32.96875l-3.503906 3.496094 1.566406 4.695312c.335938 1.007813 7.273438 20.914063 26.464844 27.394532l37.128906-13.929688v-16.136719c-7.640625-5.765625-13.214844-14.128906-15.191406-23.863281h-.808594c-13.257812 0-24-10.742188-24-24s10.742188-24 24-24h80c13.257812 0 24 10.742188 24 24s-10.742188 24-24 24h-.808594c-1.976562 9.726562-7.550781 18.097656-15.191406 23.863281v16.136719l37 13.871094c19.359375-6.542969 26.257812-26.335938 26.585938-27.34375l1.566406-4.695313zm0 0"/><path d="m96 0c-39.703125 0-72 32.296875-72 72v32h8c0-13.257812 10.742188-24 24-24 10.246094 0 20.070312-4.070312 27.3125-11.3125l4.6875-4.6875 4.03125 2.6875c13.015625 8.679688 28.320312 13.3125 43.96875 13.3125 13.257812 0 24 10.742188 24 24h8v-32c0-39.703125-32.296875-72-72-72zm0 0"/><path d="m248 496h-208c-22.054688 0-40-17.945312-40-40v-96c0-22.054688 17.945312-40 40-40h56v-53.480469l98.039062 53.480469h53.960938c22.054688 0 40 17.945312 40 40v96c0 22.054688-17.945312 40-40 40zm0 0"/></g><path d="m192 214.175781c0-16.582031-10.433594-31.632812-25.953125-37.457031l-38.046875-14.261719v-6.777343c6.054688-5.433594 10.71875-12.359376 13.398438-20.222657 15.074218-2.585937 26.601562-15.664062 26.601562-31.457031 0-17.648438-14.351562-32-32-32-14.113281 0-27.785156-4.144531-39.527344-11.96875l-9.488281-6.328125-9.328125 9.328125c-5.703125 5.695312-13.59375 8.96875-21.65625 8.96875-17.648438 0-32 14.351562-32 32 0 15.792969 11.527344 28.871094 26.601562 31.457031 2.679688 7.855469 7.34375 14.78125 13.398438 20.222657v6.777343l-38.039062 14.261719c-15.527344 5.824219-25.960938 20.875-25.960938 37.457031v25.824219h192zm-40-110.175781c0 5.894531-3.238281 11-8 13.777344v-27.546875c4.761719 2.769531 8 7.875 8 13.769531zm-63.03125-29.65625.0625-.0625c11.792969 7.535156 25.121094 11.878906 38.96875 13.152344v32.566406c0 17.648438-14.351562 32-32 32s-32-14.351562-32-32v-32.742188c9.375-1.65625 18.191406-6.136718 24.96875-12.914062zm-48.96875 29.65625c0-5.894531 3.238281-11 8-13.777344v27.546875c-4.761719-2.769531-8-7.875-8-13.769531zm56 64c5.617188 0 10.984375-1.023438 16-2.800781v.136719l-16 21.335937-16-21.335937v-.136719c5.015625 1.777343 10.382812 2.800781 16 2.800781zm80 56h-32v-16h-16v16h-64v-16h-16v16h-32v-9.824219c0-9.953125 6.257812-18.976562 15.574219-22.472656l37.625-14.101563 26.800781 35.734376 26.800781-35.734376 37.625 14.109376c9.316407 3.488281 15.574219 12.511718 15.574219 22.464843zm0 0"/><path d="m470.046875 432.71875-38.046875-14.261719v-6.777343c6.054688-5.433594 10.71875-12.359376 13.398438-20.222657 15.074218-2.585937 26.601562-15.65625 26.601562-31.457031 0-17.648438-14.351562-32-32-32h-80c-17.648438 0-32 14.351562-32 32 0 15.800781 11.527344 28.871094 26.601562 31.457031 2.679688 7.855469 7.34375 14.78125 13.398438 20.222657v6.777343l-38.046875 14.261719c-15.519531 5.824219-25.953125 20.882812-25.953125 37.457031v25.824219h192v-25.824219c0-16.574219-10.433594-31.632812-25.953125-37.457031zm-70.046875-24.71875c-17.648438 0-32-14.351562-32-32v-32h64v32c0 17.648438-14.351562 32-32 32zm56-48c0 5.894531-3.238281 11-8 13.777344v-27.546875c4.761719 2.769531 8 7.875 8 13.769531zm-112 0c0-5.894531 3.238281-11 8-13.777344v27.546875c-4.761719-2.769531-8-7.875-8-13.769531zm56 64c5.617188 0 10.984375-1.023438 16-2.800781v2.800781c0 8.824219-7.175781 16-16 16s-16-7.175781-16-16v-2.800781c5.015625 1.777343 10.382812 2.800781 16 2.800781zm80 56h-32v-16h-16v16h-64v-16h-16v16h-32v-9.824219c0-9.953125 6.257812-18.984375 15.574219-22.480469l34.425781-12.910156c4.457031 12.335938 16.160156 21.214844 30 21.214844s25.542969-8.878906 29.992188-21.207031l34.421874 12.910156c9.328126 3.488281 15.585938 12.519531 15.585938 22.472656zm0 0"/><path d="m264 64c4.414062 0 8 3.59375 8 8h16c0-10.414062-6.710938-19.214844-16-22.527344v-17.472656h-16v17.472656c-9.289062 3.3125-16 12.113282-16 22.527344 0 13.230469 10.769531 24 24 24 4.414062 0 8 3.59375 8 8s-3.585938 8-8 8-8-3.59375-8-8h-16c0 10.414062 6.710938 19.214844 16 22.527344v17.472656h16v-17.472656c9.289062-3.3125 16-12.113282 16-22.527344 0-13.230469-10.769531-24-24-24-4.414062 0-8-3.59375-8-8s3.585938-8 8-8zm0 0"/><path d="m32 352h16v16h-16zm0 0"/><path d="m64 352h16v16h-16zm0 0"/><path d="m96 352h160v16h-160zm0 0"/><path d="m32 384h224v16h-224zm0 0"/><path d="m32 416h224v16h-224zm0 0"/><path d="m240 448h16v16h-16zm0 0"/><path d="m32 448h192v16h-192zm0 0"/><path d="m304 32h160v16h-160zm0 0"/><path d="m304 64h160v16h-160zm0 0"/><path d="m352 96h112v16h-112zm0 0"/><path d="m304 96h32v16h-32zm0 0"/><path d="m304 128h128v16h-128zm0 0"/><path d="m448 128h16v16h-16zm0 0"/></svg>