<svg height="496pt" viewBox="0 0 496 496" width="496pt" xmlns="http://www.w3.org/2000/svg"><path d="m176 296-24 24 16 64h-48l16-64-24-24 32-24zm0 0" fill="#f0bc5e"/><path d="m288 368h67.71875l-28.957031 43.449219-17.105469-17.105469-11.3125 11.3125 30.894531 30.894531 45.707031-68.550781h25.054688v80h-112v-16h-16v32h144v-112h-30.382812l13.039062-19.558594-13.3125-8.882812-18.960938 28.441406h-94.382812v32h16zm0 0"/><path d="m204.167969 32.847656-7.3125-7.3125c-16.472657-16.464844-38.367188-25.535156-61.664063-25.535156-48.070312 0-87.191406 39.121094-87.191406 87.191406v72.808594h8c0-13.257812 10.742188-24 24-24h8v-16c14.9375 0 28.886719-7.441406 37.207031-19.839844l2.792969-4.160156c20.726562 15.511719 45.902344 23.929688 71.792969 24h.207031v16h8c13.257812 0 24 10.742188 24 24h8v-79.015625c0-22.328125-14.625-41.800781-35.832031-48.136719zm0 0" fill="#f0bc5e"/><path d="m432 336v144h-176v-51.054688l41.886719-20.945312-41.886719-20.945312v-51.054688h-16v43.054688l-6.113281-3.054688h-153.886719v-32h-16v36.390625c-7.246094 4.257813-12.695312 11.265625-14.863281 19.609375h-33.136719v-93.886719c0-17.714843 11.886719-33.511719 28.910156-38.433593l37.3125-10.769532 17.386719 60.84375 44.390625-35.507812 44.390625 35.515625 17.386719-60.851563 37.320312 10.769532c7.351563 2.121093 13.917969 6.289062 18.972656 12.054687l12.035157-10.542969c-7.089844-8.078125-16.273438-13.910156-26.578125-16.878906l-63.527344-18.328125v-16.105469c8.457031-6.789062 15.144531-15.679687 19.289062-25.878906h4.710938c17.648438 0 32-14.351562 32-32s-14.351562-32-32-32v-8l-.207031-7.976562-7.976563-.023438c-24.007812-.0625-47.808594-8.023438-67.015625-22.40625l-6.746093-5.050781-7.488282 11.160156c-6.847656 10.199219-18.269531 16.296875-30.566406 16.296875h-8v16c-17.648438 0-32 14.351562-32 32s14.351562 32 32 32h4.710938c4.144531 10.199219 10.832031 19.089844 19.289062 25.878906v16.105469l-63.519531 18.320313c-23.832031 6.878906-40.480469 29-40.480469 53.808593v109.886719h49.136719c3.574219 13.769531 15.992187 24 30.863281 24h153.886719l6.113281-3.054688v59.054688h208v-160zm-241.601562-83.519531-10.789063 37.765625-23.632813-18.902344 22.34375-22.34375zm33.601562-92.480469c0 8.824219-7.175781 16-16 16h-.550781c.328125-2.625.550781-5.289062.550781-8v-24c8.824219 0 16 7.175781 16 16zm-144 16c-8.824219 0-16-7.175781-16-16s7.175781-16 16-16v24c0 2.710938.222656 5.375.550781 8zm16-8v-40.601562c13.488281-2.0625 25.695312-9.261719 34.03125-20.222657 18.464844 12 39.976562 19.144531 61.96875 20.558594v40.265625c0 26.472656-21.527344 48-48 48s-48-21.527344-48-48zm48 64c8.488281 0 16.585938-1.695312 24-4.710938v9.398438l-24 24-24-24v-9.398438c7.414062 3.015626 15.511719 4.710938 24 4.710938zm-34.320312 16.992188 22.34375 22.34375-23.632813 18.902343-10.789063-37.757812zm-13.679688 175.007812h-16c-8.824219 0-16-7.175781-16-16s7.175781-16 16-16h16zm128 0h-112v-32h112zm16-27.054688 22.113281 11.054688-22.113281 11.054688zm0 0"/><path d="m469.785156 360c-5.402344 0-10.59375-1.632812-15.023437-4.726562l-110.761719-73.664063-110.839844 73.71875c-4.273437 3.015625-9.496094 4.671875-14.945312 4.671875-14.453125 0-26.214844-11.761719-26.214844-26.214844v-4.296875c0-8.550781 4.183594-16.585937 11.183594-21.480469l140.816406-93.617187 140.65625 93.503906c7.160156 5 11.34375 13.035157 11.34375 21.59375v4.296875c0 14.453125-11.761719 26.214844-26.214844 26.214844zm0 0" fill="#f0bc5e"/></svg>