<svg height="496pt" viewBox="0 0 496 496" width="496pt" xmlns="http://www.w3.org/2000/svg"><path d="m453.742188 176.375c-6.820313-23.734375-28.453126-40.375-53.742188-40.375-4.96875 0-9.847656.648438-14.59375 1.9375-11.628906-25.386719-36.980469-41.9375-65.40625-41.9375-11.144531 0-22.105469 2.671875-32 7.574219v-23.574219h-16v-80h-48v80h-16v10.425781c-9.929688-2.929687-20.632812-3.195312-30.59375-.488281-11.628906-25.386719-36.980469-41.9375-65.40625-41.9375-39.703125 0-72 32.296875-72 72 0 2.894531.199219 5.777344.542969 8.640625-22.925781 3.597656-40.542969 23.429687-40.542969 47.359375 0 26.472656 21.527344 48 48 48h139.054688l8 16h12.847656c-.511719 67.863281-16.703125 135.710938-47.054688 196.425781l14.3125 7.160157c31.457032-62.921876 48.230469-133.242188 48.742188-203.578126h16.097656v200h16v-200.007812h16.097656c.519532 70.335938 17.285156 140.65625 48.742188 203.574219l14.3125-7.160157c-25.578125-51.148437-40.976563-107.382812-45.558594-164.414062h158.40625c26.472656 0 48-21.527344 48-48 0-24.519531-18.488281-44.769531-42.257812-47.625zm-213.742188-160.375h16v32h-16zm0 48h16v16h-16zm-16 32h48v16h-48zm224 160h-159.433594c-.230468-5.335938-.429687-10.664062-.46875-16h12.847656l26.207032-52.425781-14.3125-7.160157-21.785156 43.585938h-86.109376l-21.792968-43.574219-14.3125 7.160157 10.214844 20.414062h-131.054688c-17.648438 0-32-14.351562-32-32s14.351562-32 32-32 32 14.351562 32 32h16c0-23.464844-16.9375-43.015625-39.222656-47.160156-.464844-2.910156-.777344-5.863282-.777344-8.839844 0-30.871094 25.128906-56 56-56 24.230469 0 45.609375 15.488281 53.175781 38.527344l2.753907 8.359375 8.0625-3.527344c10.167968-4.4375 21.960937-4.351563 32.007812-.015625v6.128906c-9.289062 3.3125-16 12.113282-16 22.527344v16h16v-16c0-4.414062 3.585938-8 8-8h8v24h16v-24h16v24h16v-24h8c4.414062 0 8 3.585938 8 8v16h16v-16c0-7.3125-3.351562-13.785156-8.527344-18.191406 7.582032-3.71875 15.847656-5.808594 24.527344-5.808594 24.230469 0 45.609375 15.488281 53.175781 38.527344l2.753907 8.359375 8.0625-3.527344c5.085937-2.222656 10.472656-3.359375 16.007812-3.359375 16.769531 0 31.230469 10.273438 37.128906 25.289062-21.242187 4.941407-37.128906 23.984376-37.128906 46.710938h16c0-17.648438 14.351562-32 32-32s32 14.351562 32 32-14.351562 32-32 32zm0 0"/><g fill="#f0bc5e"><path d="m384 496h-272v-8c0-30.871094 25.128906-56 56-56h160c30.871094 0 56 25.128906 56 56zm0 0"/><path d="m328 192h-160c-8.824219 0-16-7.175781-16-16v-16c0-8.824219 7.175781-16 16-16h160c8.824219 0 16 7.175781 16 16v16c0 8.824219-7.175781 16-16 16zm0 0"/></g></svg>