<svg height="496pt" viewBox="0 0 496 496" width="496pt" xmlns="http://www.w3.org/2000/svg"><g fill="#f0bc5e"><path d="m80 304v48h144v-48zm0 0"/><path d="m80 368h56v48h-56zm0 0"/><path d="m144 256h-48v-80h48zm0 0"/><path d="m208 256h-48v-80h48zm0 0"/><path d="m256 448h-96v-48h96zm0 0"/><path d="m416 448h-80v-48h80zm0 0"/></g><path d="m480 480h16v16h-16zm0 0"/><path d="m0 480h16v16h-16zm0 0"/><path d="m448 368h-16v-32h-24v-224h-32v-32h-32v-32h-32v-48h-16v48h-32v32h-32v32h-16v-16h-128v48h-24v128h-16v208h-16v16h432v-16h-16zm-16 16v96h-112v-96zm-16-16h-80v-16h80zm-136-304h48v16h-48zm-32 32h112v16h-112zm144 32v208h-72v32h-16v112h-16v-112h-16v-32h-16v-64h-16v-128h-24v-16zm-136 224v16h-96v-16zm16 32v96h-128v-96zm-168-272h96v32h-96zm-24 48h144v112h-144zm-16 128h176v48h-96v32h-16v112h-64zm0 0"/><path d="m200 400h16v48h-16zm0 0"/><path d="m368 400h16v48h-16zm0 0"/><path d="m376 192h-48v-48h48zm0 0" fill="#f0bc5e"/><path d="m376 256h-48v-48h48zm0 0" fill="#f0bc5e"/><path d="m376 320h-48v-48h48zm0 0" fill="#f0bc5e"/><path d="m312 192h-48v-48h48zm0 0" fill="#f0bc5e"/><path d="m312 256h-48v-48h48zm0 0" fill="#f0bc5e"/><path d="m312 320h-48v-48h48zm0 0" fill="#f0bc5e"/></svg>