<svg height="661" viewBox="0 0 496 496" width="661" xmlns="http://www.w3.org/2000/svg"><g fill="#f0bc5e"><path d="M176 64h64v40h-64zm0 0M256 64h64v40h-64zm0 0M352 160h48v56h-48zm0 0M416 160h48v56h-48zm0 0M352 272h48v56h-48zm0 0M416 272h48v56h-48zm0 0M96 160h48v56H96zm0 0M32 160h48v56H32zm0 0M96 272h48v56H96zm0 0M32 272h48v56H32zm0 0"/></g><path d="M480 128V96H352V32h-16V0H160v32h-16v64H16v32H0v328c0 22 18 40 40 40h416c22 0 40-18 40-40V128zm0 224h-16v16h16v56c-8-6-18-9-29-8-9-19-29-32-51-32s-42 13-51 32a36 36 0 0 0-13 1v-49h16v-16h-16v-16h144zM312 480h-24v-96h16v-16H192v16h16v96h-24a40 40 0 0 0-8-56V112h144v312a40 40 0 0 0-8 56zm-40-96v96h-48v-96zM16 352v-16h144v16h-16v16h16v49l-13-1c-9-19-29-32-51-32s-42 13-51 32c-11-1-21 2-29 8v-56h16v-16zm0-112v-16h144v16h-16v16h16v64H16v-64h16v-16zm464-96v64H336v-64zm0 96h-16v16h16v64H336v-64h16v-16h-16v-16h144zM352 112h112v16H336v-16zM176 16h144v16H176zm-16 32h176v48H160zM32 112h128v16H32zm128 32v64H16v-64zM40 480a24 24 0 0 1 0-48l8 1 7 3 3-8c5-17 20-28 38-28s33 11 38 28l3 8 7-3 8-1a24 24 0 0 1 0 48zm416 0H344a24 24 0 0 1 0-48l8 1 7 3 3-8c5-17 20-28 38-28s33 11 38 28l3 8 7-3 8-1a24 24 0 0 1 0 48zm0 0"/><path d="M368 352h80v16h-80zm0 0M48 352h80v16H48zm0 0M368 240h80v16h-80zm0 0M48 240h80v16H48zm0 0M192 336h112V128H192zm16-48h32v32h-32zm48-64v-32h32v32zm32 16v32h-32v-32zm-48-16h-32v-32h32zm0 16v32h-32v-32zm16 80v-32h32v32zm32-144h-32v-32h32zm-48-32v32h-32v-32zm0 0"/></svg>