<svg xmlns="http://www.w3.org/2000/svg" width="23.69" height="24">
	<path d="M7.69 8a8 8 0 0116 0v16h-2V8a6 6 0 00-12 0v1h-2V8zm7 6a6 6 0 00-12 0h12zm-6 2a1 1 0 011 1v1a1 1 0 01-2 0v-1a1 1 0 011-1zm0 5a1 1 0 011 1v1a1 1 0 01-2 0v-1a1 1 0 011-1zm4.94-5.343a1 1 0 011.28.6l.69.878a1 1 0 01-1.88.685l-.69-.879a1 1 0 01.6-1.284zm2.05 4.638a1 1 0 011.28.6l.35.94a1.008 1.008 0 01-.6 1.282 1 1 0 01-1.28-.6l-.35-.939a1.008 1.008 0 01.6-1.283zM3.75 15.657a1 1 0 01.6 1.282l-.69.879a1 1 0 11-1.87-.682l.68-.88a1 1 0 011.28-.599zM1.7 20.296a1 1 0 01.6 1.281l-.34.941a1 1 0 01-1.88-.683l.34-.94A1 1 0 011.7 20.3z"/>
</svg>
