<svg xmlns="http://www.w3.org/2000/svg" width="24" height="24">
<path d="M3.91 7.993h16.17a2.635 2.635 0 012.68 1.773l1.21 11.358a2.456 2.456 0 01-2.61 2.875H2.63a2.46 2.46 0 01-2.61-2.875L1.23 9.766a2.635 2.635 0 012.68-1.773zm.66-7.994h3.86c1.09 0 2.57.135 2.57 1l.01 3.463c.14.838-1.72 1.539-2.93 1.539H3.91c-1.21 0-2.07-.7-1.92-1.539l.37-3.139A2.146 2.146 0 014.57 0zm11 0h3.86a2.123 2.123 0 012.2 1.325l.38 3.139c.14.838-.72 1.539-1.93 1.539h-5.17c-1.21 0-2.07-.7-1.92-1.539L13 1c0-.9 1.48-1 2.57-1z"/>
</svg>