<svg height="661" viewBox="0 0 496 496" width="661" xmlns="http://www.w3.org/2000/svg"><path d="M312 248h64v168h-64zm0 0" fill="#f0bc5e"/><path d="M69 0L0 69v299h304v21L197 496h256c24 0 43-19 43-43V0zm-5 27v37H27zm276 184c1-4 7-4 8 0l15 29h-38zm28 245a24 24 0 0 1-48 0V256h48zm-64-136h-32v-80h35l-3 6zm0 91v45c0 9 3 17 8 24h-77zm176 42c0 15-12 27-27 27h-77c5-7 8-15 8-24v-25a24 24 0 0 0 32-23v-72h-16v72a8 8 0 0 1-16 0v-77l96-96zm-96-144v-63l-21-42c-3-5-6-8-11-10v-26h-16v26c-5 2-8 5-11 10l-10 20h-59v96h-96V168h-16v168h160v16H16V80h64V16h400v197zm0 0"/><path d="M90 190l12-12-38-37-38 37 12 12 18-19v138l-18-19-12 12 38 37 38-37-12-12-18 19V171zm0 0M440 197V59l18 19 12-12-38-37-38 37 12 12 18-19v138l-18-19-12 12 38 37 38-37-12-12zm0 0M176 256h64v-64h-64zm16-48h32v32h-32zm0 0"/><path d="M343 176H153a25 25 0 0 1-17-43l79-72a49 49 0 0 1 66 0l79 72a25 25 0 0 1-17 43zm0 0" fill="#f0bc5e"/></svg>