<svg height="663" viewBox="0 0 497 497" width="663" xmlns="http://www.w3.org/2000/svg"><path d="M484 93L336 0l-88 56V33h-48v53l-11 7c-8 5-13 14-13 23v3a27 27 0 0 0 40 23v63h16v-73l104-65 104 65v173h-27v16h43V142a27 27 0 0 0 40-23v-3c0-9-4-18-12-23zM216 49h16v17l-16 10zm264 70a11 11 0 0 1-16 9L336 48l-127 80a11 11 0 0 1-17-9v-3c0-4 2-7 5-9l139-88 139 88c3 2 5 5 5 9zm0 0"/><path d="M296 169h80v-64h-80zm16-48h48v32h-48zm0 0"/><path d="M144 145c-53 0-96 44-96 96v64h8c0-13 11-24 24-24h8v-16c21 0 40-8 55-22l1-2 2 2c14 14 34 22 54 22v16h8c13 0 24 11 24 24h8v-64c0-52-43-96-96-96zm0 0" fill="#f0bc5e"/><path d="M248 398l-64-19v-16c9-6 15-15 20-26h4c12 0 22-6 28-16h24v-16h-20c0-17-14-32-32-32v-16h-8c-18 0-36-7-49-20l-7-7-7 7a69 69 0 0 1-49 20h-8v16a32 32 0 0 0 0 64h5c4 11 11 20 19 26v16l-63 19c-24 7-41 29-41 54v45h288v-45c0-25-16-47-40-54zm-57 0l-11 38-24-19 23-23zm33-93c0 9-7 16-16 16v-32c9 0 16 8 16 16zM80 321a16 16 0 0 1 0-32v24l1 8zm16-8v-40c18-2 35-9 48-21 14 12 30 19 48 21v40a48 48 0 0 1-96 0zm48 64c9 0 17-1 24-4v9l-24 24-24-24v-9c8 3 16 4 24 4zm-34 17l22 23-23 19-11-38zm162 87h-48v-32h-16v32H80v-32H64v32H16v-29c0-18 12-34 29-39l37-11 18 61 44-35 45 35 17-61 37 11c17 5 29 21 29 39zm0 0"/><path d="M336 377a88 88 0 1 1 0-176 88 88 0 0 1 0 176zm0 0" fill="#f0bc5e"/><path d="M336 265c5 0 8 4 8 8h16c0-10-6-19-16-22v-18h-16v18a24 24 0 0 0 8 46 8 8 0 1 1-8 8h-16c0 11 7 20 16 23v17h16v-17a24 24 0 0 0-8-47 8 8 0 0 1 0-16zm0 0"/></svg>