<svg xmlns="http://www.w3.org/2000/svg" width="24" height="24"><g><path d="M20 2h-1V1a1 1 0 10-2 0v1H7V1a1 1 0 10-2 0v1H4C1.794 2 0 3.794 0 6v14c0 2.206 1.794 4 4 4h16c2.206 0 4-1.794 4-4V6c0-2.206-1.794-4-4-4zm2 18a2 2 0 01-2 2H4a2 2 0 01-2-2V6a2 2 0 012-2h1v1a1 1 0 102 0V4h10v1a1 1 0 102 0V4h1a2 2 0 012 2v14z"/><circle cx="6" cy="12" r="2"/><circle cx="18" cy="12" r="2"/><circle cx="12" cy="12" r="2"/><circle cx="6" cy="18" r="2"/><circle cx="18" cy="18" r="2"/><circle cx="12" cy="18" r="2"/></g></svg>