<svg xmlns="http://www.w3.org/2000/svg" viewBox="0 0 155.14 155.14">
  <g fill="#010002">
    <path d="M42.19 38.84c-1.08-.77-2.9-1.5-5.46-2.2v16.13c3.5-.17 5.9-1.44 7.25-3.84A8.54 8.54 0 0045 44.67c0-2.55-.93-4.5-2.82-5.83zM28.06 18.37a7.92 7.92 0 00-1.72 4.81c0 2.02.67 3.6 2.03 4.75a11.94 11.94 0 005.45 2.4V15.9c-2.7.11-4.61.92-5.76 2.46z"/>
    <path d="M35.25 0a35.25 35.25 0 100 70.5 35.25 35.25 0 000-70.5zm9.97 54.77c-1.95 1.26-4.78 2.1-8.49 2.51v5.95h-2.91v-5.95c-5.94-.39-9.98-2.5-12.1-6.32-1.17-2.07-1.74-4.85-1.74-8.37h5.4c.17 2.8.62 4.85 1.35 6.13 1.28 2.31 3.63 3.6 7.1 3.9V35.9c-4.44-.84-7.72-2.23-9.83-4.2-2.11-1.97-3.17-4.69-3.17-8.16 0-3.11 1.14-5.9 3.42-8.4 2.28-2.5 5.47-3.76 9.57-3.8V7.26h2.91v4.01c4.09.29 7.2 1.48 9.36 3.6 2.18 2.1 3.33 4.9 3.42 8.36h-5.35a9.1 9.1 0 00-1.26-4.02c-1.3-2.06-3.35-3.15-6.17-3.24V30.9c4.75 1.33 7.96 2.58 9.66 3.74 2.77 1.92 4.14 4.77 4.14 8.52.02 5.45-1.76 9.31-5.3 11.61zM35.25 84.64a35.24 35.24 0 100 70.5 35.25 35.25 0 000-70.5zm13.4 58.22a11.3 11.3 0 01-4.97 1.12c-1.28 0-3.44-.49-6.47-1.48-3.02-.98-5.4-1.47-7.16-1.47-1.62 0-3.16.28-4.6.84-.86.34-1.95.92-3.3 1.73l-3.17-4.55a24.85 24.85 0 005.83-5.6 11.13 11.13 0 002.21-6.65 8.3 8.3 0 00-.41-2.4c-.18-.59-.46-1.37-.87-2.38h-7.1v-3.33h5.04c0 .1-.36-.56-1.08-2-.72-1.45-1.19-2.5-1.43-3.16a14.96 14.96 0 01-.76-4.8c0-3.34 1.36-6.33 4.08-8.96 2.7-2.63 6.6-3.96 11.66-3.96 4.77 0 8.37 1.3 10.82 3.9 2.44 2.62 3.7 6.3 3.78 11.07H44.8c0-3.23-.76-5.68-2.26-7.35-1.5-1.68-3.8-2.52-6.88-2.52-2.98 0-5.26.78-6.79 2.36a7.89 7.89 0 00-2.31 5.72c0 1.11.24 2.26.72 3.43.48 1.17 1.5 3.27 3.07 6.29h10.5v3.34H31.8c.22.98.37 1.74.46 2.3.1.56.14 1.13.14 1.73 0 2.14-.64 4.25-1.91 6.34-1.3 2.08-3.3 4.14-6.04 6.2a26.61 26.61 0 014.36-1.78c1.43-.43 2.83-.65 4.2-.65 1.53 0 3.58.37 6.1 1.14 2.54.76 4.19 1.13 4.99 1.13 1 0 1.91-.2 2.76-.58.5-.24 1.3-.73 2.34-1.47l2.65 4.34a18.98 18.98 0 01-3.2 2.1zM119.9 0a35.25 35.25 0 100 70.5 35.25 35.25 0 000-70.5zm13.9 53.9c-3.12 4.03-7.34 6.04-12.64 6.04-4.57 0-8.4-1.64-11.53-4.95-2.93-3.1-4.83-7.44-5.65-13h-8.04l1.34-4.52h6.26a48.81 48.81 0 010-5.05h-7.6l1.35-4.54h6.76a26.08 26.08 0 014.06-10.11c3.33-4.82 7.9-7.22 13.77-7.22 4.99 0 8.84 1.56 11.6 4.7a17.8 17.8 0 014.6 10.66h-5.22c-.58-3.02-1.74-5.42-3.52-7.19-1.76-1.76-4.22-2.65-7.4-2.65-3.89 0-7.04 1.63-9.41 4.9a17.45 17.45 0 00-2.85 6.92h17.8l-1.34 4.53h-17.1a48.6 48.6 0 00-.08 5.05h18.52L126.14 42h-16.7c.51 2.8 1.42 5.21 2.72 7.25 2.13 3.4 5.35 5.11 9.63 5.11 3.94 0 6.94-1.8 9.01-5.4 1.1-1.9 1.89-4.38 2.42-7.47h5.21c-.48 4.93-2 9.07-4.63 12.41zM119.9 84.64a35.24 35.24 0 10-.01 70.49 35.24 35.24 0 000-70.49zm17.13 26.44v4.63h-8.7l-4.4 7.48h11.98v4.62h-12.8v16.17h-6.5V127.8h-12.44v-4.62h11.63l-4.4-7.48h-8.85v-4.63h6.13l-9-15.3h7.63l12.55 23.18 12.6-23.19h7.65l-9.04 15.32h5.97z"/>
  </g>
</svg>
