<svg height="661" viewBox="0 0 496 497" width="661" xmlns="http://www.w3.org/2000/svg"><path d="M248 0l-72 36v53h144V36zm0 0" fill="#f0bc5e"/><path d="M248 225c-8 0-16-7-16-16h-16c0 15 11 27 24 31v17h16v-17a32 32 0 0 0-8-63 16 16 0 1 1 16-16h16c0-15-10-27-24-31v-17h-16v17a32 32 0 0 0 8 63 16 16 0 0 1 0 32zm0 0M380 362l-35 21-1-1-67-61c-11-9-27-11-38-3l-30 17a11 11 0 0 1-17-9v-1c0-5 3-8 6-10l45-22c8-4 17-5 25-3l50 15h18v-16h-14l-50-14-11-2-37-11c-16-6-34-6-51-3l-59 13 4 16 59-13c14-3 29-3 42 2l12 4-40 20c-9 4-15 13-15 24v1a27 27 0 0 0 41 23l30-18c6-3 14-3 19 2l68 61 2 6c0 5-3 9-8 9h-2l-5-2-1-1-42-35-11 12 42 35a8 8 0 0 1-5 15h-2l-5-2-1-1-42-35-11 12 42 35a8 8 0 0 1-5 15c-3 0-6-1-8-3l-18-15c-4-8-12-14-22-14 0-13-11-24-24-24 0-13-11-24-24-24a25 25 0 0 0-42-17l-14 14-2 3-25-15-9 14 29 17c0 13 10 23 24 24 0 13 11 23 24 24 0 13 11 23 24 24a25 25 0 0 0 38 20l8 6c4 4 10 6 16 6h1c13 0 24-11 24-24 14 0 24-11 24-24 14 0 24-11 24-24 14 0 24-11 24-25v-2l37-22zm-244 30c0-2 1-5 3-6l14-14c2-2 4-3 7-3a9 9 0 0 1 6 15l-14 14c-2 2-4 3-7 3-5 0-9-4-9-9zm24 24c0-2 1-5 3-6l14-14c2-2 4-3 7-3a9 9 0 0 1 6 15l-14 14c-2 2-4 3-7 3-5 0-9-4-9-9zm24 24c0-2 1-5 3-6l14-14c2-2 4-3 7-3a9 9 0 0 1 6 15l-14 14c-2 2-4 3-7 3-5 0-9-4-9-9zm33 33a9 9 0 0 1-6-15l14-14c2-2 4-3 7-3a9 9 0 0 1 6 15l-14 14c-2 2-4 3-7 3zm39 8h-1l-6-2-6-5 6-6 5-8 7 6a8 8 0 0 1-5 15zm0 0"/><path d="M480 129V97H336V81H160v16H16v32H0v104h16v-88h144v96h16V97h144v144h16v-96h144v88h16V129zm-448 0v-16h128v16zm304-16h128v16H336zm0 0"/><path d="M352 241h66v-16h-50v-48h80v39h16v-55H352zm0 0M78 225v16h66v-80H32v48h16v-32h80v48zm0 0M240 49h16v16h-16zm0 0M272 49h16v16h-16zm0 0M208 49h16v16h-16zm0 0"/><g fill="#f0bc5e"><path d="M312 273l80 120 104-32V185zm0 0M0 177v184l96 32 32-126zm0 0"/></g></svg>