<svg height="661" viewBox="0 0 496 496" width="661" xmlns="http://www.w3.org/2000/svg"><g fill="#f0bc5e"><path d="M32 200h64v160H32zm0 0M144 200h64v160h-64zm0 0M256 168v192h64V240h144v-72zm0 0M400 144H208V32h192zm0 0"/><path d="M464 368H336V256h128zm0 0"/></g><path d="M496 77L428 0H176v160h-40c-6 0-12 2-16 6-4-4-10-6-16-6H24c-13 0-24 11-24 24v288c0 13 11 24 24 24h80c6 0 12-2 16-6 4 4 10 6 16 6h80c13 0 24-11 24-24v-72h256zm-64-48l38 43h-38zM104 480H24c-4 0-8-4-8-8V184c0-4 4-8 8-8h80c4 0 8 4 8 8v288c0 4-4 8-8 8zm120-8c0 4-4 8-8 8h-80c-4 0-8-4-8-8V184c0-4 4-8 8-8h80c4 0 8 4 8 8zm16-88V184c0-13-11-24-24-24h-24V16h224v72h64v296zm0 0"/><path d="M64 400a32 32 0 1 0 0 64 32 32 0 0 0 0-64zm0 48a16 16 0 1 1 0-32 16 16 0 0 1 0 32zm0 0M32 192h64v16H32zm0 0M32 224h64v16H32zm0 0M32 256h64v16H32zm0 0M32 288h64v16H32zm0 0M32 320h64v16H32zm0 0M32 352h64v16H32zm0 0M176 400a32 32 0 1 0 0 64 32 32 0 0 0 0-64zm0 48a16 16 0 1 1 0-32 16 16 0 0 1 0 32zm0 0M144 192h64v16h-64zm0 0M144 224h64v16h-64zm0 0M144 256h64v16h-64zm0 0M144 288h64v16h-64zm0 0M144 320h64v16h-64zm0 0M144 352h64v16h-64zm0 0M256 160h208v16H256zm0 0M256 192h16v16h-16zm0 0M288 192h176v16H288zm0 0M448 224h16v16h-16zm0 0M256 224h176v16H256zm0 0M256 352h64v16h-64zm0 0M256 320h64v16h-64zm0 0M256 288h64v16h-64zm0 0M256 256h64v16h-64zm0 0"/></svg>