<svg height="661" viewBox="0 0 496 496" width="661" xmlns="http://www.w3.org/2000/svg"><g fill="#f0bc5e"><path d="M112 392h144v64H112zm0 0M32 216h160v104H32zm0 0M464 256H304v-48h160zm0 0M464 320H304v-48h160zm0 0M192 192H32V64h160zm0 0"/></g><path d="M496 176h-16v-32h-32V96h-64V0H0v395l84 101h300v-64h112zm-32 0H304v-16h160zm-32-32h-96v-32h96zM80 466l-55-66h55zm288 14H96v-96H16V16h352v80h-48v48h-32v32h-16v256h96zm40-64h-48v-40a24 24 0 0 1 48 0zm72 0h-56v-40a40 40 0 0 0-80 0v40h-56V192h192zm0 0"/><path d="M183 36l-14-8-68 114-25-13-8 14 39 19zm0 0M352 208h16v48h-16zm0 0M400 208h16v48h-16zm0 0M400 272h16v48h-16zm0 0M352 272h16v48h-16zm0 0M336 448h16v16h-16zm0 0M112 448h208v16H112zm0 0M112 416h144v16H112zm0 0M112 384h144v16H112zm0 0M32 208h160v16H32zm0 0M32 240h16v16H32zm0 0M64 240h128v16H64zm0 0M32 272h160v16H32zm0 0M32 304h128v16H32zm0 0M176 304h16v16h-16zm0 0"/></svg>