<svg xmlns="http://www.w3.org/2000/svg" viewBox="0 0 496 496">
  <g fill="#f0bc5e">
    <path d="M200 192h96v48h-96zm0 0M200 368h96v120h-96zm0 0M448 360h-96v-64h96zm0 0M144 360H48v-64h96zm0 0"/>
  </g>
  <path d="M480 423.95V232h-16v184.69c-4.2-.83-8.65-.98-13.2-.3C441.73 396.73 422.16 384 400 384s-41.73 12.74-50.8 32.38c-7.55-1.1-14.8.02-21.2 2.83v-79.5l-80-53.33-80 53.34v79.47a38.55 38.55 0 00-21.2-2.8C137.73 396.73 118.16 384 96 384s-41.73 12.74-50.8 32.38c-4.55-.67-9-.52-13.2.3V232H16v191.95A40.3 40.3 0 000 456c0 22.05 17.95 40 40 40h416c22.05 0 40-17.95 40-40a40.3 40.3 0 00-16-32.05zM248 305.62l64 42.66V432c-5 6.72-8 15.06-8 24.01a39.6 39.6 0 008.2 24H183.8a39.6 39.6 0 00.2-48.03v-83.69zM40 480c-13.23 0-24-10.77-24-24s10.77-24 24-24a24 24 0 017.6 1.38l7.76 2.61 2.43-7.83C62.99 411.32 78.35 400 96 400s33 11.32 38.21 28.17l2.43 7.83 7.77-2.62A23.8 23.8 0 01152 432c13.23 0 24 10.77 24 24s-10.77 24-24 24zm416 0H344c-13.23 0-24-10.77-24-24s10.77-24 24-24a24 24 0 017.6 1.38l7.76 2.61 2.43-7.83C366.99 411.32 382.35 400 400 400s33 11.32 38.21 28.17l2.43 7.83 7.77-2.62A23.8 23.8 0 01456 432c13.23 0 24 10.77 24 24s-10.77 24-24 24zm0 0M69.64 96h356.73l38.1 106.69 15.07-5.39L437.64 80H392V48h-16V0h-48v48h-16v32H184V48h-16V0h-48v48h-16v32H58.36l-41.9 117.31 15.08 5.39zM344 16h16v32h-16zm-16 48h48v16h-48zM136 16h16v32h-16zm-16 48h48v16h-48zm0 0"/>
  <path d="M416 280V173.44l11 8.8 10-12.5-85-67.99-85 68 10 12.5 11-8.8V280zm-80-16v-48c0-4.4 3.6-8 8-8h16c4.4 0 8 3.6 8 8v48zm64-103.35V264h-16v-48c0-13.23-10.77-24-24-24h-16c-13.23 0-24 10.77-24 24v48h-16V160.65l48-38.4zm0 0M208 280V173.44l11 8.8 10-12.5-85-67.99-85 68 10 12.5 11-8.8V280zm-80-16v-48c0-4.4 3.6-8 8-8h16c4.4 0 8 3.6 8 8v48zm64-103.35V264h-16v-48c0-13.23-10.77-24-24-24h-16c-13.23 0-24 10.77-24 24v48H96V160.65l48-38.4zm0 0"/>
  <path d="M344 144h16v16h-16zm0 0M136 144h16v16h-16zm0 0"/>
  <path fill="#f0bc5e" d="M480 192h-64v48h64c8.82 0 16-7.18 16-16v-16c0-8.82-7.18-16-16-16zm0 0M16 192c-8.82 0-16 7.18-16 16v16c0 8.82 7.18 16 16 16h64v-48zm0 0"/>
</svg>
