<svg height="665" viewBox="0 -1 500 499" width="665" xmlns="http://www.w3.org/2000/svg"><g fill="#f0bc5e"><path d="M112 352h64v104h-64zm0 0M304 128h48v72h-48zm0 0M368 128h48v72h-48zm0 0M112 160h64v56h-64zm0 0"/></g><path d="M480 450V288h20l-39-96h-13V96h36L445 0H275l-39 96h36v96h-16v-24h-16v72h-16v-88h-16v56H80v-56H64v88H48v-72H32v72H16v28c0 17-5 34-15 48l-1 2v18h32v112h-8c-13 0-24 11-24 24v24h496v-24c0-10-7-19-16-22zm-16-2H256V336h32v-18l-1-2c-6-9-10-18-12-28h189zM208 336v112H80V336zm16 0h16v112h-16zm108-128l-25 64h-31l25-64zm63 0l25 64h-31l-25-64zm-23 64h-48l24-60zm104 0h-39l-25-64h39zM285 16h150l25 64H260zm3 80h144v96H288zm-32 112h28l-13 32h-15zM80 224h128v16H80zm-48 32h224v12l2 20H30l2-20zm-7 48h238c2 6 4 11 8 16H17c4-5 6-10 8-16zm23 32h16v112H48zm432 144H16v-8c0-4 4-8 8-8h448c4 0 8 4 8 8zm0 0"/><path d="M432 320H320v80h112zm-16 32h-32v-16h32zm-48-16v16h-32v-16zm-32 32h32v16h-32zm48 16v-16h32v16zm0 0"/><path d="M261 184c-5 0-9-1-13-3l-104-59-104 59a27 27 0 0 1-40-24v-2c0-9 5-18 13-23l131-77 131 77c8 5 13 14 13 23v2c0 15-12 27-27 27zm0 0" fill="#f0bc5e"/></svg>