<svg height="661" viewBox="0 0 496 496" width="661" xmlns="http://www.w3.org/2000/svg"><g fill="#f0bc5e"><path d="M384 400h64v88h-64zm0 0M288 400h64v88h-64zm0 0M450 224h-52l2-40h48zm0 0M331 192h-54l3-40h48zm0 0"/></g><path d="M192 272h-64v64h64zm-16 48h-32v-32h32zm0 0"/><path d="M496 304h-32l-8-128h-64l-8 128h-33l-16-160h-62l-11 108 16 1 9-93h34l14 144h-28v16h173v16H272v-30h-16v174h-16V352H80v128H64V306H48v190h432V352h16zm-88-112h32l7 112h-46zM224 416H96v-16h128zm0 16v16H96v-16zm0-64v16H96v-16zM96 464h128v16H96zm368 16H272V352h192zm0 0M320 128h16c0-8 3-12 6-17 5-5 10-12 10-26 0-13-5-20-10-26-3-5-6-8-6-16s3-12 6-17c5-6 10-13 10-26h-16c0 8-3 12-6 17-5 5-10 12-10 26 0 13 5 20 10 26 3 5 6 8 6 16s-3 12-6 17c-5 6-10 13-10 26zm0 0M272 128h16c0-8 3-12 6-17 5-5 10-12 10-26 0-13-5-20-10-26-3-5-6-8-6-16s3-12 6-17c5-6 10-13 10-26h-16c0 8-3 12-6 17-5 5-10 12-10 26 0 13 5 20 10 26 3 5 6 8 6 16s-3 12-6 17c-5 6-10 13-10 26zm0 0M440 160h16c0-8 3-12 6-17 5-5 10-12 10-26 0-13-5-20-10-26-3-5-6-8-6-16s3-12 6-17c5-6 10-13 10-26h-16c0 8-3 12-6 17-5 5-10 12-10 26 0 13 5 20 10 26 3 5 6 8 6 16s-3 12-6 17c-5 6-10 13-10 26zm0 0M400 144h16c0-8 3-12 6-17 5-5 10-12 10-26 0-13-5-20-10-26-3-5-6-8-6-16s3-12 6-17c5-6 10-13 10-26h-16c0 8-3 12-6 17-5 5-10 12-10 26 0 13 5 20 10 26 3 5 6 8 6 16s-3 12-6 17c-5 6-10 13-10 26zm0 0"/><path d="M288 368h64v16h-64zm0 0M384 368h64v16h-64zm0 0"/><path d="M290 328h-2c-7 0-14-3-19-7l-109-94-109 94c-5 4-12 7-19 7h-2a30 30 0 0 1-19-53l149-125 149 125a30 30 0 0 1-19 53zm0 0" fill="#f0bc5e"/></svg>