<svg height="663" viewBox="0 0 497 497" width="663" xmlns="http://www.w3.org/2000/svg"><path d="M184 289h48a16 16 0 1 1 0 32h-40c-4 0-8 4-8 8v17a72 72 0 0 0 102 29l1-1a16 16 0 0 1 9-29 16 16 0 0 1 0-32 16 16 0 1 1 0-32h16v-1l-1-3c-8-12-18-22-31-28v-64l-16-16 16-16v-24l-16-32h-32l-16 32v120c-15 8-28 21-35 37v4l3-1zm0 0" fill="#f0bc5e"/><path d="M168 161h32v-16h-48v112h16zm0 0M328 257h16V145h-48v16h32zm0 0"/><path d="M448 183h-16v226h-97l1-12v-13c9-3 16-12 16-23 0-6-2-11-6-16a24 24 0 0 0 0-32c4-4 6-10 6-16 0-13-11-24-24-24h-32c-13 0-24 11-24 24 0 6 3 12 6 16a24 24 0 0 0 0 32c-3 5-6 10-6 16 0 14 11 24 24 24h24v12c0 11-4 21-12 29l-12 12v43H192v-42l-23-30c-6-7-9-15-9-25v-63c0-13 11-24 24-24h48a8 8 0 0 1 0 16h-40c-9 0-16 8-16 16v48h16v-48h40a24 24 0 0 0 0-48h-48c-22 0-40 18-40 40v63c0 9 2 18 6 25H64V183H48v242h113l15 19v53h136v-52l8-8 9-12h119zM288 329c0-4 4-8 8-8h32a8 8 0 0 1 0 16h-32c-4 0-8-3-8-8zm8-40h32a8 8 0 0 1 0 16h-32a8 8 0 0 1 0-16zm-8 72c0-4 4-8 8-8h32a8 8 0 0 1 0 16h-32c-4 0-8-3-8-8zm0 0"/><path d="M463 201c-6 0-12-1-17-5L248 75 50 196a33 33 0 0 1-50-28v-1c0-11 6-22 16-28L248 0l232 139c10 6 16 17 16 28v1c0 19-15 33-33 33zm0 0" fill="#f0bc5e"/></svg>