<svg height="663" viewBox="0 0 497 498" width="663" xmlns="http://www.w3.org/2000/svg"><path d="M464 362v120h-16v-32a32 32 0 0 0-64 0v32h-8v-32a32 32 0 0 0-64 0v32h-24v-37c0-25-14-47-36-59l-4-1-3 1a66 66 0 0 0-37 59v37h-16v-32a32 32 0 0 0-64 0v32h-16v-32a32 32 0 0 0-64 0v32H32V362H16v136h464V362zm-64 88a16 16 0 0 1 32 0v32h-32zm-72 0a16 16 0 0 1 32 0v32h-32zm-104-5c0-17 9-33 24-42 15 9 24 25 24 42v37h-48zm-80 5a16 16 0 0 1 32 0v32h-32zm-80 0a16 16 0 0 1 32 0v32H64zm0 0"/><g fill="#f0bc5e"><path d="M472 370H24c-13 0-24-11-24-24v-16c0-14 11-24 24-24h448c14 0 24 10 24 24v16c0 13-10 24-24 24zm0 0M176 290h-48v-64h48zm0 0M240 290h-48v-64h48zm0 0M304 290h-48v-64h48zm0 0M368 290h-48v-64h48zm0 0"/></g><path d="M216 66h1c-19 15-41 46-41 104h16c0-81 46-101 56-104 10 3 56 23 56 104h16c0-58-22-89-41-104h1c58 0 104 46 104 104h16c0-67-54-120-120-120-1-19-11-36-27-47l-5-3-4 3a62 62 0 0 0-27 47h-1c-66 0-120 53-120 120h16c0-58 47-104 104-104zm32-46c9 7 15 18 16 30h-31c1-12 6-23 15-30zm0 0M80 210h16v96H80zm0 0M400 210h16v96h-16zm0 0"/><path d="M432 210H64v-48h368zm0 0" fill="#f0bc5e"/></svg>