<svg height="665" viewBox="0 -4 499 499" width="665" xmlns="http://www.w3.org/2000/svg"><path d="M208 235h80v72h-80zm0 0" fill="#f0bc5e"/><path d="M480 299V139h19L360 0 260 100l-12-12-33 35H60L0 203h16v96c-9 0-16 8-16 16v16c0 9 7 16 16 16h136v65h-5a56 56 0 1 0-102 0c-24-4-45 16-45 39s18 40 40 40h416a40 40 0 1 0-5-79 56 56 0 1 0-102 0h-5v-65h136c9 0 16-7 16-16v-16c0-8-7-16-16-16zm-16 0H352v-80h18l-74-80h168zm-128-80v80H160v-80zm24-196l101 100H281l-10-11zm-26 180H162l86-92zM68 139h132l-45 48H32zm-36 64h109l-15 16h18v80H32zm8 272a24 24 0 0 1 0-48l8 2 7 2 3-7c5-17 20-29 38-29s33 12 38 29l3 7 7-2 8-1v47zm128-128h16v128h-16zm128 0v128h-96V347zm56 82l7 2 3-7c5-17 20-29 38-29s33 12 38 29l3 7 7-2 8-2a24 24 0 0 1 0 48H344v-47l8 1zm-24 46h-16V347h16zm152-144H16v-16h464zm0 0"/><g fill="#f0bc5e"><path d="M128 283H48v-64h80zm0 0M448 203h-64v-48h64zm0 0M448 283h-64v-48h64zm0 0"/></g></svg>