<svg height="447pt" viewBox="0 0 447 447.13936" width="447pt" xmlns="http://www.w3.org/2000/svg"><path d="m259.039062 22.34375c1.597657 1.175781 3.109376 2.402344 4.582032 3.683594.929687.796875 1.824218 1.644531 2.703125 2.511718 1.449219 1.40625 2.808593 2.878907 4.128906 4.40625.6875.800782 1.410156 1.550782 2.066406 2.398438 1.859375 2.339844 3.578125 4.792969 5.132813 7.34375.351562.578125.632812 1.195312.96875 1.785156 1.199218 2.113282 2.3125 4.28125 3.304687 6.519532.414063.945312.800781 1.898437 1.160157 2.863281.800781 2.066406 1.511718 4.171875 2.128906 6.3125.269531.9375.558594 1.859375.800781 2.800781.109375.472656.285156.921875.390625 1.402344h.382812c3.054688-.289063 6.160157-.425782 9.28125-.425782 15.386719-.03125 30.632813 2.957032 44.871094 8.800782l.503906.199218c1.761719-5.492187 2.648438-11.230468 2.625-17-.023437-22.523437-13.535156-42.839843-34.296874-51.566406-20.761719-8.730468-44.730469-4.171875-60.839844 11.566406 2.542968 1.308594 5.003906 2.769532 7.367187 4.375.945313.625 1.824219 1.335938 2.738281 2.023438zm29.03125-6.398438c22.078126.027344 39.972657 17.917969 40 40 0 4.417969-3.582031 8-8 8-4.417968 0-8-3.582031-8-8 0-13.253906-10.746093-24-24-24-4.417968 0-8-3.582031-8-8 0-4.417968 3.582032-8 8-8zm0 0"/><path d="m189.332031 129.128906c.160157-.304687.355469-.597656.511719-.910156.5625-1.074219 1.1875-2.105469 1.785156-3.160156.96875-1.722656 1.953125-3.433594 3.007813-5.105469.714843-1.121094 1.464843-2.207031 2.199219-3.304687 1.058593-1.542969 2.128906-3.070313 3.25-4.566407.800781-1.097656 1.664062-2.160156 2.511718-3.199219 1.152344-1.425781 2.335938-2.832031 3.542969-4.203124.914063-1.027344 1.835937-2.042969 2.769531-3.046876 1.273438-1.34375 2.574219-2.640624 3.910156-3.917968.96875-.9375 1.929688-1.875 2.929688-2.777344 1.421875-1.28125 2.886719-2.503906 4.367188-3.710938.992187-.800781 1.960937-1.648437 2.976562-2.402343 1.671875-1.277344 3.398438-2.480469 5.136719-3.671875.894531-.613282 1.765625-1.269532 2.679687-1.863282 2.679688-1.734374 5.421875-3.382812 8.246094-4.902343 2.648438-1.425781 5.34375-2.730469 8.074219-3.953125.886719-.390625 1.792969-.726563 2.6875-1.105469 1.863281-.796875 3.726562-1.542969 5.601562-2.230469 1.085938-.390625 2.191407-.726562 3.285157-1.089844 1.746093-.574218 3.496093-1.132812 5.265624-1.597656 1.167969-.328125 2.34375-.625 3.527344-.914062.953125-.230469 1.886719-.519532 2.847656-.734375 0-.128907 0-.273438-.070312-.410157-.191406-.75-.472656-1.460937-.699219-2.207031-.503906-1.703125-1.039062-3.398437-1.703125-5.039062-.359375-.894531-.800781-1.761719-1.214844-2.632813-.65625-1.414062-1.335937-2.824218-2.113281-4.175781-.511719-.886719-1.070312-1.742187-1.597656-2.609375-.800781-1.253906-1.664063-2.484375-2.578125-3.671875-.632812-.796875-1.296875-1.597656-1.976562-2.398437-.972657-1.128907-1.996094-2.21875-3.0625-3.265626-.734376-.71875-1.464844-1.445312-2.238282-2.132812-1.152344-1.015625-2.402344-1.960938-3.609375-2.882812-.800781-.589844-1.601562-1.207032-2.398437-1.757813-1.410156-.9375-2.898438-1.769531-4.402344-2.585937-.742188-.398438-1.457031-.855469-2.222656-1.230469-2.332032-1.132813-4.738282-2.101563-7.199219-2.90625-2.128906-.753907-4.316406-1.339844-6.539063-1.75-3.535156-.75-7.136718-1.140625-10.75-1.160157-25.601562.019532-47.929687 17.394532-54.234374 42.203126-6.308594 24.8125 5.015624 50.742187 27.496093 62.980468zm26.738281-89.183594c4.417969 0 8 3.582032 8 8 0 4.417969-3.582031 8-8 8-13.253906 0-24 10.746094-24 24 0 4.417969-3.582031 8-8 8-4.417968 0-8-3.582031-8-8 .027344-22.082031 17.917969-39.972656 40-40zm0 0"/><path d="m296.070312 287.945312c48.320313.019532 90.289063-33.242187 101.304688-80.289062s-11.824219-95.484375-55.128906-116.917969c-2.402344-1.113281-4.800782-2.226562-7.265625-3.199219-2.671875-1.097656-5.382813-2.019531-8.109375-2.875-.976563-.300781-1.960938-.589843-2.945313-.863281-1.894531-.535156-3.816406-1-5.734375-1.414062-.992187-.21875-1.976562-.472657-2.976562-.65625-2.59375-.488281-5.21875-.855469-7.855469-1.144531-1.058594-.113282-2.121094-.183594-3.203125-.273438-2.132812-.167969-4.285156-.269531-6.460938-.304688-.824218 0-1.625-.0625-2.425781-.0625-1.488281 0-2.976562.089844-4.457031.160157-.910156.046875-1.824219.054687-2.734375.128906-2.402344.183594-4.800781.4375-7.128906.800781l-3.75.574219c-34.128907 6.417969-62.84375 29.355469-76.640625 61.222656-13.796875 32.136719-10.527344 69.050781 8.699218 98.261719 19.226563 29.210938 51.839844 46.8125 86.8125 46.851562zm-64.800781-56.566406c-1.824219 1.082032-4.007812 1.398438-6.0625.871094-2.058593-.523438-3.824219-1.847656-4.90625-3.671875-3.394531-5.734375-6.125-11.832031-8.136719-18.183594-1.175781-4.164062 1.167969-8.511719 5.296876-9.8125 4.128906-1.296875 8.542968.921875 9.960937 5.011719 1.640625 5.1875 3.871094 10.167969 6.648437 14.847656 2.234376 3.792969.984376 8.683594-2.800781 10.9375zm56.800781-102.296875v-9.136719c0-4.417968 3.582032-8 8-8 4.417969 0 8 3.582032 8 8v9.136719c14.085938 3.636719 23.945313 16.316407 24 30.863281 0 4.417969-3.582031 8-8 8-4.417968 0-8-3.582031-8-8 0-8.835937-7.164062-16-16-16-8.835937 0-16 7.164063-16 16 0 8.835938 7.164063 16 16 16 .394532.050782.785157.125 1.167969.230469.398438-.074219.800781-.121093 1.207031-.140625 15.65625 1.074219 28.203126 13.371094 29.597657 29s-8.78125 29.953125-23.996094 33.78125v9.128906c0 4.417969-3.582031 8-8 8s-8-3.582031-8-8v-9.0625c-15-3.84375-25.074219-17.902343-23.890625-33.335937.152344-2.898437 1.855469-5.488281 4.460938-6.769531 2.601562-1.28125 5.695312-1.050782 8.082031.601562 2.386719 1.648438 3.691406 4.460938 3.410156 7.351563-.65625 8.808593 5.957031 16.484375 14.765625 17.140625 8.8125.660156 16.488281-5.949219 17.144531-14.761719.660157-8.808594-5.945312-16.488281-14.757812-17.148437-.214844 0-.382813-.128907-.59375-.160157-.207031-.03125-.382813.144531-.597657.144531-16.09375.019532-29.6875-11.9375-31.722656-27.902343-2.03125-15.96875 8.136719-30.949219 23.722656-34.960938zm-80 54.863281c-.019531-11.945312 2.414063-23.769531 7.160157-34.734374 7.855469-18.222657 21.625-33.261719 39.085937-42.691407 3.894532-2.09375 8.746094-.632812 10.839844 3.257813s.636719 8.746094-3.253906 10.839844c-14.296875 7.703124-25.570313 20.007812-32 34.921874-3.867188 8.96875-5.855469 18.636719-5.832032 28.40625 0 4.417969-3.582031 8-8 8-4.417968 0-8-3.582031-8-8zm0 0"/><path d="m24.460938 319.945312h-24.3906255v96h40.6953125c5.269531 0 10.527344.398438 15.734375 1.191407l195.019531 29.863281c1.914063.351562 3.894531.027344 5.597657-.917969l181.992187-105.066406c4.980469-2.835937 8.039063-8.140625 8-13.871094.003906-5.726562-3.050781-11.019531-8.011719-13.878906-4.964844-2.859375-11.078125-2.847656-16.027344.03125l-97.402343 56.25c-5.910157 8.738281-15.769531 13.980469-26.316407 14h-.082031c-2.648437 0-108.328125-15.679687-108.328125-15.679687-2.894531-.339844-5.375-2.226563-6.476562-4.921876-1.101563-2.699218-.648438-5.78125 1.179687-8.050781 1.828125-2.265625 4.746094-3.359375 7.617188-2.851562 0 0 101.65625 14.902343 101.953125 14.984375 6.957031 1.664062 14.195312-1.335938 17.933594-7.433594h.042968v-.0625c.703125-1.175781 1.242188-2.445312 1.597656-3.769531 1.113282-4.105469.542969-8.484375-1.578124-12.167969-2.121094-3.6875-5.625-6.375-9.734376-7.472656l-75-13.296875c-12.34375-2.769531-24.238281-7.261719-35.335937-13.34375-17.625-9.121094-37.226563-13.769531-57.070313-13.535157-19.492187-.246093-38.757812 4.230469-56.144531 13.046876-3.757812 1.914062-7.683593 3.46875-11.726562 4.648437-14.179688 4.292969-28.925781 6.417969-43.738281 6.304687zm0 0"/></svg>