<svg xmlns="http://www.w3.org/2000/svg" viewBox="0 0 390.672 390.672"><path d="M83.934 195.093l.004.285.008 17.451h222.781l.012-17.709c.559-20.158 13.303-36.898 31.126-43.34-9.385-33.271-39.935-57.668-76.21-57.668H129.018c-36.274 0-66.825 24.396-76.21 57.668 17.823 6.44 30.567 23.176 31.126 43.313z"/><path d="M354.19 161.489c-19.806 0-35.911 15.783-36.456 35.457l-.014 28.432H72.95l-.013-28.432c-.545-19.674-16.651-35.457-36.456-35.457C16.333 161.489 0 177.823 0 197.972c0 20.148 16.333 36.48 36.481 36.48.645 0 1.234-.018 1.87-.051l.021 20.639c0 16.383 13.281 29.662 29.662 29.662h6.533v8.561a3.298 3.298 0 003.297 3.297h21.941a3.298 3.298 0 003.297-3.297v-8.561h184.465v8.561a3.298 3.298 0 003.297 3.297h21.941a3.298 3.298 0 003.297-3.297v-8.561h6.516c16.383 0 29.662-13.279 29.662-29.662 0-.148-.01-.295-.012-.443v-20.195c.637.033 1.276.051 1.921.051 20.147 0 36.481-16.332 36.481-36.48.002-20.15-16.332-36.484-36.48-36.484z"/></svg>