<svg height="663" viewBox="0 0 498 497" width="663" xmlns="http://www.w3.org/2000/svg"><path d="M176 402H32V290h144zm0 0" fill="#f0bc5e"/><path d="M498 434l-64-32H256v-32h208V149h-16v205h-32v-88c0-13-11-24-24-24h-48c-13 0-24 11-24 24v88h-64V194h-48v-45h-16v45H60l-28 33v-81h136v-16H30l39-64h190V50H59L2 146h14v99L0 263v235h256v-32h178zM336 266c0-4 4-8 8-8h48c4 0 8 4 8 8v88h-64zm-56 152h144v32H280zm-16 32h-32a16 16 0 0 1 0-32h32zm176-5v-22l22 11zM56 224v34H26zm184 258H16V274h56v-64h168v192h-8a32 32 0 0 0 0 64h8zm0 0"/><path d="M32 450h152v16H32zm0 0M32 418h152v16H32zm0 0M174 271l-12-10-75 89-17-17-12 11 31 30zm0 0M88 226h136v16H88zm0 0M352 290h16v16h-16zm0 0M392 138H264v48h128zm-16 32h-96v-16h96zm0 0"/><path d="M470 162c-6 0-11-1-15-5L328 68l-127 89c-4 4-9 5-15 5-14 0-26-12-26-26v-4c0-9 4-17 11-22L328 0l157 110c7 5 11 13 11 22v4c0 14-12 26-26 26zm0 0" fill="#f0bc5e"/></svg>