<svg height="661" viewBox="0 0 496 496" width="661" xmlns="http://www.w3.org/2000/svg"><g fill="#f0bc5e"><path d="M80 304v48h144v-48zm0 0M80 368h56v48H80zm0 0M144 256H96v-80h48zm0 0M208 256h-48v-80h48zm0 0M256 448h-96v-48h96zm0 0M416 448h-80v-48h80zm0 0"/></g><path d="M480 480h16v16h-16zm0 0M0 480h16v16H0zm0 0M448 368h-16v-32h-24V112h-32V80h-32V48h-32V0h-16v48h-32v32h-32v32h-16V96H88v48H64v128H48v208H32v16h432v-16h-16zm-16 16v96H320v-96zm-16-16h-80v-16h80zM280 64h48v16h-48zm-32 32h112v16H248zm144 32v208h-72v32h-16v112h-16V368h-16v-32h-16v-64h-16V144h-24v-16zM256 352v16h-96v-16zm16 32v96H144v-96zM104 112h96v32h-96zm-24 48h144v112H80zM64 288h176v48h-96v32h-16v112H64zm0 0"/><path d="M200 400h16v48h-16zm0 0M368 400h16v48h-16zm0 0"/><path d="M376 192h-48v-48h48zm0 0M376 256h-48v-48h48zm0 0M376 320h-48v-48h48zm0 0M312 192h-48v-48h48zm0 0M312 256h-48v-48h48zm0 0M312 320h-48v-48h48zm0 0" fill="#f0bc5e"/></svg>