<svg height="661" viewBox="-48 0 496 496" width="661" xmlns="http://www.w3.org/2000/svg"><path d="M304 360h-16v-26c0-10 2-21 7-30l88-191a12 12 0 0 0-11-17c-4 0-8 2-10 6l-48 96c-3 6-9 10-16 10-10 0-18-8-18-18v-5-3l24-126v-2c0-8-6-14-14-14h-1c-6 0-11 4-13 10l-27 136c-1 8-8 14-16 14-10 0-17-7-17-17V29c0-7-6-13-13-13h-6c-7 0-13 6-13 13v154a17 17 0 0 1-33 3l-11-54-17-81c-1-6-7-11-13-11-5 0-8 1-10 4-3 2-4 5-4 9l1 6 23 139v8a18 18 0 0 1-34 10l-37-57c-3-4-9-7-14-7h-2a17 17 0 0 0-14 26l81 121c8 12 12 26 12 40v21H96v-21c0-11-3-21-9-31L5 187c-3-6-5-12-5-18 0-18 15-33 33-33h2c11 0 21 5 27 14l38 57c1 2 4 1 4-1v-5L81 61l-1-8a29 29 0 0 1 29-29c15 0 28 10 30 25l16 79a1353 1353 0 0 1 13 55V29c0-16 13-29 29-29h6c16 0 29 13 29 29v154h1l28-136c2-13 14-23 28-23h1a30 30 0 0 1 30 35l-24 126v5c0 2 3 3 4 1l47-96c5-9 15-15 25-15a28 28 0 0 1 25 39l-88 192c-3 7-5 15-5 23zm0 0"/><path d="M297 496H103a47 47 0 0 1-42-68l97-194c8-16 24-26 42-26s34 10 42 26l97 194a47 47 0 0 1-42 68zm0 0" fill="#f0bc5e"/><path d="M200 464a24 24 0 1 1 0-48 24 24 0 0 1 0 48zm0-32a8 8 0 0 0 0 16 8 8 0 0 0 0-16zm0 0M200 400c-9 0-16-7-17-15l-7-104a24 24 0 0 1 23-25h2a23 23 0 0 1 23 25l-7 104c-1 8-8 15-17 15zm-1-128c-4 0-7 3-7 7l7 104h2l7-103c0-5-3-8-7-8zm0 0"/></svg>