<?xml version="1.0" standalone="no"?>
<!DOCTYPE svg PUBLIC "-//W3C//DTD SVG 20010904//EN"
 "http://www.w3.org/TR/2001/REC-SVG-20010904/DTD/svg10.dtd">
<svg version="1.0" xmlns="http://www.w3.org/2000/svg"
 width="603.000000pt" height="603.000000pt" viewBox="0 0 603.000000 603.000000"
 preserveAspectRatio="xMidYMid meet">
<metadata>
Created by potrace 1.11, written by Peter Selinger 2001-2013
</metadata>
<g transform="translate(0.000000,603.000000) scale(0.100000,-0.100000)"
fill="#000000" stroke="none">
<path d="M3187 5594 c-1 -1 -60 -5 -132 -8 -71 -3 -141 -8 -155 -10 -14 -2
-52 -7 -85 -10 -219 -22 -445 -82 -621 -168 -213 -102 -341 -235 -448 -461
-63 -133 -135 -382 -161 -552 -18 -122 -27 -185 -31 -230 -2 -27 -7 -72 -11
-100 -10 -83 -15 -3108 -4 -3114 7 -5 720 -6 754 -2 4 1 7 563 7 1250 l0 1250
868 -4 c477 -2 955 -4 1062 -5 107 0 212 -1 233 0 l37 0 0 320 0 321 -1101 -3
-1101 -3 6 71 c27 325 137 558 319 671 96 61 231 110 347 128 25 4 53 9 62 10
71 14 247 17 816 17 l652 0 0 319 0 320 -656 -3 c-361 -2 -656 -4 -657 -4z"/>
<path d="M3843 4935 c-82 -35 -73 -150 14 -174 52 -15 102 10 118 59 28 82
-50 149 -132 115z"/>
<path d="M2955 4685 c-56 -14 -140 -49 -148 -62 -6 -10 40 -93 51 -93 4 0 29
11 56 25 92 47 176 28 176 -38 0 -29 -6 -32 -90 -42 -152 -18 -248 -109 -226
-212 22 -96 153 -136 274 -83 53 24 62 25 62 5 0 -12 14 -15 68 -15 l67 0 -1
187 c-1 227 -5 254 -47 293 -46 43 -146 57 -242 35z m135 -339 c0 -54 0 -55
-37 -67 -56 -19 -84 -18 -104 2 -35 35 -14 82 42 95 13 3 40 9 59 14 19 4 36
8 38 9 1 0 2 -23 2 -53z"/>
<path d="M3609 4683 c-19 -8 -46 -26 -61 -40 l-27 -26 6 37 6 37 -59 -6 c-113
-11 -101 21 -100 -265 l0 -250 78 0 78 0 0 158 c0 152 1 159 23 178 34 31 68
41 114 34 l42 -6 6 55 c4 31 9 63 11 73 3 9 0 19 -6 23 -21 13 -78 12 -111 -2z"/>
<path d="M4220 4690 c-105 -21 -163 -86 -153 -173 8 -73 64 -118 183 -148 25
-6 57 -17 72 -25 22 -12 25 -18 19 -41 -12 -43 -64 -49 -163 -17 -26 9 -50 20
-53 25 -11 17 -22 9 -53 -41 l-31 -49 54 -26 c95 -47 236 -53 314 -13 59 31
81 63 87 129 9 95 -34 139 -184 185 -87 26 -106 44 -78 72 21 22 88 19 147 -6
l45 -20 27 49 28 48 -38 19 c-62 32 -155 45 -223 32z"/>
<path d="M3865 4680 l-50 -5 -3 -252 -2 -253 75 0 c75 0 75 0 76 28 1 32 1
462 0 478 -1 12 -16 13 -96 4z"/>
<path d="M3305 3338 c-91 -8 -154 -16 -185 -22 -83 -17 -171 -42 -210 -59 -25
-11 -48 -21 -51 -21 -25 -4 -146 -93 -204 -150 -103 -102 -168 -199 -219 -325
-156 -386 -116 -861 101 -1189 33 -49 150 -174 199 -213 53 -41 148 -92 205
-110 127 -40 286 -52 696 -53 l295 0 -6 -64 c-13 -143 -90 -228 -234 -262 -41
-9 -300 -12 -1108 -12 l-1054 -1 0 -219 0 -219 1173 4 c644 2 1188 7 1207 11
19 4 53 12 75 18 22 6 48 13 58 15 10 2 53 20 95 40 126 61 232 178 284 313
78 197 76 171 77 1423 l1 1107 -562 -2 c-310 -2 -594 -6 -633 -10z m625 -1075
l0 -623 -187 -1 c-288 -1 -332 1 -413 17 -98 20 -178 64 -249 136 -110 110
-146 235 -145 488 2 176 18 270 62 364 52 110 117 156 273 196 93 24 108 27
194 36 33 3 61 8 63 9 2 2 93 2 203 2 l199 -1 0 -623z"/>
</g>
</svg>
