<svg height="496pt" viewBox="0 0 496 496.944" width="496pt" xmlns="http://www.w3.org/2000/svg"><path d="m248.472656 0-72 36v52.945312h144v-52.945312zm0 0" fill="#f0bc5e"/><path d="m248.472656 224.945312c-8.824218 0-16-7.175781-16-16h-16c0 14.863282 10.238282 27.285157 24 30.863282v17.136718h16v-17.136718c13.757813-3.578125 24-16 24-30.863282 0-17.648437-14.351562-32-32-32-8.824218 0-16-7.175781-16-16 0-8.824218 7.175782-16 16-16 8.824219 0 16 7.175782 16 16h16c0-14.867187-10.242187-27.289062-24-30.867187v-17.132813h-16v17.132813c-13.761718 3.578125-24 16-24 30.867187 0 17.648438 14.351563 32 32 32 8.824219 0 16 7.175782 16 16 0 8.824219-7.175781 16-16 16zm0 0"/><path d="m380.351562 362.089844-35.0625 21.039062c-.335937-.34375-.601562-.746094-.960937-1.074218l-67.601563-60.839844c-10.261718-9.238282-26.285156-10.78125-38.125-3.679688l-29.785156 17.871094c-1.671875 1.007812-3.59375 1.539062-5.550781 1.539062-5.953125 0-10.792969-4.839843-10.792969-10.792968v-1.59375c0-4.117188 2.289063-7.816406 5.96875-9.65625l44.628906-22.308594c7.65625-3.824219 16.730469-4.664062 24.9375-2.320312l50.273438 14.359374 18.191406.3125v-16h-14.878906l-49.195312-14.058593c-3.863282-1.101563-7.863282-1.550781-11.878907-1.703125l-36.191406-11.574219c-16.496094-5.273437-34.34375-6.089844-51.265625-2.328125l-58.664062 13.03125 3.472656 15.617188 58.664062-13.035157c14.175782-3.140625 29.113282-2.46875 42.921875 1.953125l11.773438 3.769532-39.941407 19.96875c-9.144531 4.574218-14.816406 13.757812-14.816406 23.972656v1.59375c0 14.777344 12.015625 26.792968 26.792969 26.792968 4.855469 0 9.621094-1.320312 13.789063-3.824218l29.785156-17.875c5.945312-3.566406 14.023437-2.796875 19.183594 1.851562l67.601562 60.839844c1.808594 1.636719 2.847656 3.964844 2.847656 6.398438 0 4.753906-3.855468 8.609374-8.609375 8.609374h-1.382812c-2.007813 0-3.96875-.707031-5.503907-1.992187l-1.265624-1.058594-42.117188-35.09375-10.242188 12.289063 42.121094 35.09375c1.902344 1.601562 3 3.9375 3 6.417968 0 4.597657-3.746094 8.34375-8.34375 8.34375h-1.738281c-1.949219 0-3.847656-.6875-5.34375-1.9375l-1.335937-1.113281-42.117188-35.09375-10.242188 12.289063 42.121094 35.09375c1.902344 1.59375 3 3.929687 3 6.417968 0 4.597657-3.746094 8.34375-8.34375 8.34375-3.074218 0-6.058594-1.082031-8.417968-3.050781l-17.839844-14.871093c-3.933594-8.046876-12.015625-13.65625-21.488282-13.992188-.460937-13.054688-10.941406-23.535156-24-24-.460937-13.054688-10.941406-23.535156-24-24-.472656-13.351562-11.414062-24.085938-24.878906-24.085938-6.671875 0-12.945312 2.597657-17.65625 7.3125l-14.0625 14.0625c-.847656.847657-1.546875 1.792969-2.25 2.734376l-24.949218-14.964844-8.234376 13.71875 28.191407 16.910156c.394531 13.121094 10.914062 23.671875 24.015625 24.136719.464844 13.054687 10.945312 23.535156 24 24 .464844 13.054687 10.945312 23.535156 24 24 .472656 13.351562 11.417968 24.089843 24.882812 24.089843 5.085938 0 9.917969-1.53125 14.03125-4.328124l7.070313 6.238281c4.449219 3.921875 10.167969 6.089843 16.105469 6.089843h1.480468c13.3125 0 24.144532-10.761718 24.3125-24.035156 13.167969-.167968 23.832032-10.832031 24-24 13.175782-.167968 23.847656-10.847656 24-24.023437 13.292969-.320313 24.03125-11.183594 24.03125-24.550781 0-.910157-.183594-1.792969-.289062-2.695313l36.402344-21.839844zm-243.878906 29.886718c0-2.402343.933594-4.648437 2.625-6.34375l14.0625-14.066406c1.695313-1.6875 3.945313-2.621094 6.34375-2.621094 4.945313 0 8.96875 4.023438 8.96875 8.964844 0 2.402344-.9375 4.648438-2.625 6.347656l-14.0625 14.0625c-1.695312 1.6875-3.945312 2.625-6.34375 2.625-4.945312 0-8.96875-4.023437-8.96875-8.96875zm24 24c0-2.402343.933594-4.648437 2.625-6.34375l14.0625-14.066406c1.695313-1.6875 3.945313-2.621094 6.34375-2.621094 4.945313 0 8.96875 4.023438 8.96875 8.964844 0 2.402344-.9375 4.648438-2.625 6.347656l-14.0625 14.0625c-1.695312 1.6875-3.945312 2.625-6.34375 2.625-4.945312 0-8.96875-4.023437-8.96875-8.96875zm24 24c0-2.402343.933594-4.648437 2.625-6.34375l14.0625-14.066406c1.695313-1.6875 3.945313-2.621094 6.34375-2.621094 4.945313 0 8.96875 4.023438 8.96875 8.964844 0 2.402344-.9375 4.648438-2.625 6.347656l-14.0625 14.0625c-1.695312 1.6875-3.945312 2.625-6.34375 2.625-4.945312 0-8.96875-4.023437-8.96875-8.96875zm32.96875 32.96875c-4.945312 0-8.96875-4.023437-8.96875-8.96875 0-2.402343.933594-4.648437 2.625-6.34375l14.0625-14.066406c1.695313-1.6875 3.945313-2.621094 6.34375-2.621094 4.945313 0 8.96875 4.023438 8.96875 8.964844 0 2.402344-.9375 4.648438-2.625 6.347656l-14.0625 14.0625c-1.695312 1.6875-3.945312 2.625-6.34375 2.625zm38.6875 8h-1.480468c-2.03125 0-3.992188-.746093-5.519532-2.089843l-5.984375-5.28125 6.007813-6.007813c2.175781-2.175781 3.839844-4.703125 5.0625-7.421875l7.25 6.039063c1.910156 1.59375 3.007812 3.929687 3.007812 6.417968 0 4.597657-3.746094 8.34375-8.34375 8.34375zm0 0"/><path d="m480.472656 128.945312v-32h-144v-16h-176v16h-144v32h-16v104h16v-88h144v96h16v-144h144v144h16v-96h144v88h16v-104zm-448 0v-16h128v16zm304-16h128v16h-128zm0 0"/><path d="m352.472656 240.945312h66v-16h-50v-48h80v39.109376h16v-55.109376h-112zm0 0"/><path d="m78.472656 224.945312v16h66v-80h-112v48h16v-32h80v48zm0 0"/><path d="m240.472656 48.945312h16v16h-16zm0 0"/><path d="m272.472656 48.945312h16v16h-16zm0 0"/><path d="m208.472656 48.945312h16v16h-16zm0 0"/><g fill="#f0bc5e"><path d="m312.472656 272.945312 80 120 104-32v-176zm0 0"/><path d="m.472656 176.945312v184l96 32 31.695313-125.808593zm0 0"/></g></svg>