<svg height="497pt" viewBox="0 0 497 497.616" width="497pt" xmlns="http://www.w3.org/2000/svg"><path d="m464.308594 361.617188v120h-16v-32c0-17.648438-14.351563-32-32-32-17.648438 0-32 14.351562-32 32v32h-8v-32c0-17.648438-14.351563-32-32-32-17.648438 0-32 14.351562-32 32v32h-24v-36.226563c0-25.117187-13.953125-47.695313-36.425782-58.933594l-3.574218-1.785156-3.578125 1.792969c-22.46875 11.230468-36.421875 33.816406-36.421875 58.925781v36.226563h-16v-32c0-17.648438-14.351563-32-32-32-17.648438 0-32 14.351562-32 32v32h-16v-32c0-17.648438-14.351563-32-32-32-17.648438 0-32 14.351562-32 32v32h-16v-120h-16v136h464v-136zm-64 88c0-8.824219 7.175781-16 16-16 8.824218 0 16 7.175781 16 16v32h-32zm-72 0c0-8.824219 7.175781-16 16-16 8.824218 0 16 7.175781 16 16v32h-32zm-104-4.226563c0-17.648437 9.09375-33.636719 24-42.65625 14.902344 9.007813 24 25 24 42.65625v36.226563h-48zm-80 4.226563c0-8.824219 7.175781-16 16-16 8.824218 0 16 7.175781 16 16v32h-32zm-80 0c0-8.824219 7.175781-16 16-16 8.824218 0 16 7.175781 16 16v32h-32zm0 0"/><g fill="#f0bc5e"><path d="m472.308594 369.617188h-448c-13.234375 0-24-10.769532-24-24v-16c0-13.234376 10.765625-24 24-24h448c13.230468 0 24 10.765624 24 24v16c0 13.230468-10.769532 24-24 24zm0 0"/><path d="m176.308594 289.617188h-48v-64h48zm0 0"/><path d="m240.308594 289.617188h-48v-64h48zm0 0"/><path d="m304.308594 289.617188h-48v-64h48zm0 0"/><path d="m368.308594 289.617188h-48v-64h48zm0 0"/></g><path d="m216.308594 65.617188h1.121094c-19.304688 15.808593-41.121094 46.390624-41.121094 104h16c0-80.152344 45.910156-100.183594 56-103.617188 10.085937 3.441406 56 23.464844 56 103.617188h16c0-57.609376-21.816406-88.191407-41.121094-104h1.121094c57.34375 0 104 46.65625 104 104h16c0-66.167969-53.832032-120-120-120h-.296875c-1.472657-18.855469-11.359375-36.058594-27.265625-46.65625l-4.4375-2.960938-4.441406 2.960938c-15.894532 10.597656-25.78125 27.800781-27.261719 46.65625h-.296875c-66.167969 0-120 53.832031-120 120h16c0-57.34375 46.65625-104 104-104zm32-45.984376c8.878906 7.613282 14.503906 18.320313 15.734375 29.984376h-31.472657c1.234376-11.65625 6.859376-22.371094 15.738282-29.984376zm0 0"/><path d="m80.308594 209.617188h16v96h-16zm0 0"/><path d="m400.308594 209.617188h16v96h-16zm0 0"/><path d="m432.308594 209.617188h-368v-48h368zm0 0" fill="#f0bc5e"/></svg>