<svg height="496pt" viewBox="0 0 496 496" width="496pt" xmlns="http://www.w3.org/2000/svg"><g fill="#f0bc5e"><path d="m200 136h-160c-8.839844 0-16-7.160156-16-16v-24h192v24c0 8.839844-7.160156 16-16 16zm0 0"/><path d="m160 272h-80v-48h80zm0 0"/><path d="m160 368h-80v-48h80zm0 0"/><path d="m160 464h-80v-48h80zm0 0"/></g><path d="m480 160h-64v-24c0-22.054688-17.945312-40-40-40h-96c-22.054688 0-40 17.945312-40 40v24h-72v-16h32c13.230469 0 24-10.769531 24-24v-96c0-13.230469-10.769531-24-24-24h-160c-13.230469 0-24 10.769531-24 24v96c0 13.230469 10.769531 24 24 24h32v16h-56c-8.824219 0-16 7.175781-16 16v16c0 8.824219 7.175781 16 16 16v288h208v-288h16v80h48v16h-24c-13.230469 0-24 10.769531-24 24v24h64v64h-32c-13.230469 0-24 10.769531-24 24v9.472656c-9.289062 3.3125-16 12.113282-16 22.527344 0 13.230469 10.769531 24 24 24s24-10.769531 24-24c0-10.414062-6.710938-19.214844-16-22.527344v-9.472656c0-4.414062 3.59375-8 8-8h112c4.40625 0 8 3.585938 8 8v9.472656c-9.289062 3.3125-16 12.113282-16 22.527344 0 13.230469 10.769531 24 24 24s24-10.769531 24-24c0-10.414062-6.710938-19.214844-16-22.527344v-9.472656c0-13.230469-10.769531-24-24-24h-32v-64h64v-24c0-13.230469-10.769531-24-24-24h-24v-16h48v-80h16v288h48v-288c8.824219 0 16-7.175781 16-16v-16c0-8.824219-7.175781-16-16-16zm-224 320c-4.40625 0-8-3.585938-8-8s3.59375-8 8-8 8 3.585938 8 8-3.59375 8-8 8zm144 0c-4.40625 0-8-3.585938-8-8s3.59375-8 8-8 8 3.585938 8 8-3.59375 8-8 8zm-144-344c0-13.230469 10.769531-24 24-24h96c13.230469 0 24 10.769531 24 24v24h-144zm-224-16v-96c0-4.414062 3.59375-8 8-8h160c4.40625 0 8 3.585938 8 8v96c0 4.414062-3.59375 8-8 8h-160c-4.40625 0-8-3.585938-8-8zm56 24h64v16h-64zm-56 64h16v272h-16zm144 176h-112v-80h112zm-112 16h112v80h-112zm112-112h-112v-80h112zm32 192h-16v-272h16zm128-64h-16v-64h16zm64-88v8h-144v-8c0-4.414062 3.59375-8 8-8h128c4.40625 0 8 3.585938 8 8zm-48-24h-48v-16h48zm48-32h-144v-64h144zm64 208h-16v-272h16zm-448-288v-16h464l.007812 16zm0 0"/></svg>