<svg height="496pt" viewBox="0 0 496 496" width="496pt" xmlns="http://www.w3.org/2000/svg"><g fill="#f0bc5e"><path d="m32 200h64v160h-64zm0 0"/><path d="m144 200h64v160h-64zm0 0"/><path d="m256 168v192h64v-120h144v-72zm0 0"/><path d="m400 144h-192v-112h192zm0 0"/><path d="m464 368h-128v-112h128zm0 0"/></g><path d="m496 76.960938-68.40625-76.960938h-251.59375v160h-40c-6.167969 0-11.742188 2.40625-16 6.238281-4.257812-3.839843-9.832031-6.238281-16-6.238281h-80c-13.230469 0-24 10.769531-24 24v288c0 13.230469 10.769531 24 24 24h80c6.167969 0 11.742188-2.40625 16-6.238281 4.257812 3.839843 9.832031 6.238281 16 6.238281h80c13.230469 0 24-10.769531 24-24v-72h256zm-64-47.921876 38.183594 42.960938h-38.183594zm-328 450.960938h-80c-4.40625 0-8-3.59375-8-8v-288c0-4.40625 3.59375-8 8-8h80c4.40625 0 8 3.59375 8 8v288c0 4.40625-3.59375 8-8 8zm120-8c0 4.40625-3.59375 8-8 8h-80c-4.40625 0-8-3.59375-8-8v-288c0-4.40625 3.59375-8 8-8h80c4.40625 0 8 3.59375 8 8zm16-88v-200c0-13.230469-10.769531-24-24-24h-24v-144h224v72h64v296zm0 0"/><path d="m64 400c-17.648438 0-32 14.351562-32 32s14.351562 32 32 32 32-14.351562 32-32-14.351562-32-32-32zm0 48c-8.824219 0-16-7.175781-16-16s7.175781-16 16-16 16 7.175781 16 16-7.175781 16-16 16zm0 0"/><path d="m32 192h64v16h-64zm0 0"/><path d="m32 224h64v16h-64zm0 0"/><path d="m32 256h64v16h-64zm0 0"/><path d="m32 288h64v16h-64zm0 0"/><path d="m32 320h64v16h-64zm0 0"/><path d="m32 352h64v16h-64zm0 0"/><path d="m176 400c-17.648438 0-32 14.351562-32 32s14.351562 32 32 32 32-14.351562 32-32-14.351562-32-32-32zm0 48c-8.824219 0-16-7.175781-16-16s7.175781-16 16-16 16 7.175781 16 16-7.175781 16-16 16zm0 0"/><path d="m144 192h64v16h-64zm0 0"/><path d="m144 224h64v16h-64zm0 0"/><path d="m144 256h64v16h-64zm0 0"/><path d="m144 288h64v16h-64zm0 0"/><path d="m144 320h64v16h-64zm0 0"/><path d="m144 352h64v16h-64zm0 0"/><path d="m256 160h208v16h-208zm0 0"/><path d="m256 192h16v16h-16zm0 0"/><path d="m288 192h176v16h-176zm0 0"/><path d="m448 224h16v16h-16zm0 0"/><path d="m256 224h176v16h-176zm0 0"/><path d="m256 352h64v16h-64zm0 0"/><path d="m256 320h64v16h-64zm0 0"/><path d="m256 288h64v16h-64zm0 0"/><path d="m256 256h64v16h-64zm0 0"/></svg>