<svg height="496pt" viewBox="0 0 496 496" width="496pt" xmlns="http://www.w3.org/2000/svg"><g fill="#f0bc5e"><path d="m352 488c-17.648438 0-32-14.351562-32-32s14.351562-32 32-32 32 14.351562 32 32-14.351562 32-32 32zm0 0"/><path d="m272 488c-17.648438 0-32-14.351562-32-32s14.351562-32 32-32 32 14.351562 32 32-14.351562 32-32 32zm0 0"/><path d="m432 488c-17.648438 0-32-14.351562-32-32s14.351562-32 32-32 32 14.351562 32 32-14.351562 32-32 32zm0 0"/><path d="m96 442.503906-27.71875-23.59375-36.28125-2.910156-2.910156-36.289062-23.59375-27.710938 23.59375-27.71875 2.910156-36.28125 36.289062-2.910156 27.710938-23.59375 27.71875 23.59375 36.28125 2.910156 2.910156 36.289062 23.59375 27.710938-23.59375 27.71875-2.910156 36.28125-36.289062 2.910156zm0 0"/><path d="m200.34375 218.246094c-.230469-1.492188-.34375-3.007813-.34375-4.519532 0-16.414062 13.3125-29.726562 29.726562-29.726562h8.25c.6875 0 1.34375.136719 2.023438.183594v-24.183594h-208v64h169.230469zm0 0"/><path d="m240 128h-208v-64h208zm0 0"/></g><path d="m80 160h16v64h-16zm0 0"/><path d="m128 160h16v64h-16zm0 0"/><path d="m176 160v64h16v-64zm0 0"/><path d="m475.839844 421.480469c2.625-3.847657 4.160156-8.488281 4.160156-13.480469v-32c0-10.414062-6.710938-19.214844-16-22.527344v-49.472656h-48v48h-10.230469l-6.882812-20.65625c-5.453125-16.351562-20.710938-27.34375-37.949219-27.34375h-56.800781c-5.503907 0-10.761719 1.257812-15.625 3.34375l-13.152344-98.609375c-.519531-3.902344-1.75-7.542969-3.367187-10.957031v-21.777344h176c26.472656 0 48-21.527344 48-48 0-23.929688-17.609376-43.761719-40.542969-47.359375.351562-2.855469.550781-5.746094.550781-8.640625 0-39.695312-32.296875-72-72-72-28.425781 0-53.777344 16.550781-65.40625 41.9375-4.746094-1.289062-9.625-1.9375-14.59375-1.9375-11.640625 0-22.753906 3.601562-32 10.046875v-18.046875h-32v-32h-208v32h-32v464h456c22.054688 0 40-17.945312 40-40 0-14.800781-8.175781-27.609375-20.160156-34.519531zm-43.839844-101.480469h16v32h-16zm-71.0625 0c10.34375 0 19.496094 6.59375 22.773438 16.40625l10.519531 31.59375h61.769531c4.414062 0 8 3.59375 8 8v32c0 4.40625-3.585938 8-8 8h-197.390625l22.445313-78.59375c2.9375-10.246094 12.433593-17.40625 23.089843-17.40625zm-121.992188 97.128906-30.699218-200.082031c-.15625-1.09375-.246094-2.214844-.246094-3.320313 0-11.984374 9.753906-21.726562 21.726562-21.726562h8.25c10.839844 0 20.101563 8.105469 21.527344 18.855469l14.3125 107.289062c-3.65625 4.261719-6.535156 9.246094-8.144531 14.863281l-23.886719 83.625c-.960937.144532-1.90625.277344-2.839844.496094zm65.054688-361.128906c5.535156 0 10.921875 1.128906 16.007812 3.359375l8.0625 3.527344 2.753907-8.359375c7.566406-23.039063 28.945312-38.527344 53.175781-38.527344 30.871094 0 56 25.121094 56 56 0 2.984375-.3125 5.929688-.777344 8.839844-22.285156 4.144531-39.222656 23.695312-39.222656 47.160156h16c0-17.648438 14.351562-32 32-32s32 14.351562 32 32-14.351562 32-32 32h-176v-87.871094c7.542969-10.105468 19.3125-16.128906 32-16.128906zm-80-24h-16v-16h16zm-144 0v-16h16v16zm32-16h16v16h-16zm32 0h16v16h-16zm32 0h16v16h-16zm-128 0h16v16h-16zm-32 32h240v132.734375c-5.398438-2.964844-11.519531-4.734375-18.023438-4.734375h-8.25c-20.804687 0-37.726562 16.929688-37.726562 37.726562 0 1.914063.152344 3.824219.441406 5.738282l3.300782 21.480468-49.398438 49.398438 11.3125 11.3125 41.105469-41.105469 25.183593 163.695313c-9.625 7.3125-15.945312 18.761718-15.945312 31.753906 0 9.039062 3.128906 17.296875 8.207031 24h-200.207031zm440 432h-208c-13.230469 0-24-10.769531-24-24s10.769531-24 24-24h208c13.230469 0 24 10.769531 24 24s-10.769531 24-24 24zm0 0"/><path d="m376 400v-48c0-8.824219-7.175781-16-16-16h-50.230469c-6.898437 0-13 4.398438-15.167969 10.9375l-17.707031 53.0625zm-66.230469-48h50.230469v32h-60.894531zm0 0"/><path d="m240 216c0 4.417969-3.582031 8-8 8s-8-3.582031-8-8 3.582031-8 8-8 8 3.582031 8 8zm0 0"/><path d="m96 312c-22.054688 0-40 17.945312-40 40s17.945312 40 40 40 40-17.945312 40-40-17.945312-40-40-40zm0 64c-13.230469 0-24-10.769531-24-24s10.769531-24 24-24 24 10.769531 24 24-10.769531 24-24 24zm0 0"/><path d="m80 64h16v64h-16zm0 0"/><path d="m128 64h16v64h-16zm0 0"/><path d="m176 64h16v64h-16zm0 0"/><path d="m408 72h16c0-22.054688-17.945312-40-40-40v16c13.230469 0 24 10.769531 24 24zm0 0"/><path d="m432 288h16c0-17.191406 6.601562-25.449219 14.246094-35 8.320312-10.398438 17.753906-22.191406 17.753906-45h-16c0 17.191406-6.601562 25.449219-14.246094 35-8.320312 10.398438-17.753906 22.191406-17.753906 45zm0 0"/></svg>