<svg height="499pt" viewBox="0 -1 499.816 499" width="499pt" xmlns="http://www.w3.org/2000/svg"><g fill="#f0bc5e"><path d="m112 352.40625h64v104h-64zm0 0"/><path d="m304 128.40625h48v72h-48zm0 0"/><path d="m368 128.40625h48v72h-48zm0 0"/><path d="m112 160.40625h64v56h-64zm0 0"/></g><path d="m480 449.878906v-161.472656h19.816406l-38.402344-96h-13.414062v-96h35.816406l-38.402344-96h-170.828124l-38.402344 96h35.816406v96h-16v-24h-16v72h-16v-88h-16v56h-128v-56h-16v88h-16v-72h-16v72h-16v27.160156c0 17.28125-5.070312 34.027344-14.65625 48.410156l-1.34375 2.007813v18.421875h32v112h-8c-13.230469 0-24 10.769531-24 24v24h496v-24c0-10.414062-6.710938-19.214844-16-22.527344zm-16-1.472656h-208v-112h32v-18.421875l-1.34375-2.015625c-5.65625-8.488281-9.695312-17.808594-12.097656-27.5625h189.441406zm-256-112v112h-128v-112zm16 0h16v112h-16zm108.183594-128-25.597656 64h-30.769532l25.597656-64zm62.402344 0 25.597656 64h-30.769532l-25.597656-64zm-22.402344 64h-48.367188l24.183594-60.453125zm104 0h-38.769532l-25.597656-64h38.769532zm-190.769532-256h149.171876l25.597656 64h-200.367188zm2.585938 80h144v96h-144zm-32 112h28.183594l-12.800782 32h-15.382812zm-176 16h128v16h-128zm-48 32h224v11.160156c0 7.058594.71875 14.035156 2.121094 20.839844h-228.242188c1.402344-6.8125 2.121094-13.789062 2.121094-20.839844zm-6.847656 48h237.695312c2.113282 5.515625 4.648438 10.882812 7.703125 16h-253.09375c3.046875-5.117188 5.582031-10.484375 7.695313-16zm22.847656 32h16v112h-16zm432 144h-464v-8c0-4.414062 3.585938-8 8-8h448c4.414062 0 8 3.585938 8 8zm0 0"/><path d="m432 320.40625h-112v80h112zm-16 32h-32v-16h32zm-48-16v16h-32v-16zm-32 32h32v16h-32zm48 16v-16h32v16zm0 0"/><path d="m261.039062 184.40625c-4.695312 0-9.320312-1.222656-13.390624-3.550781l-103.648438-59.238281-103.65625 59.238281c-4.0625 2.328125-8.6875 3.550781-13.382812 3.550781-14.863282 0-26.960938-12.09375-26.960938-26.957031v-2.191407c0-9.515624 5.097656-18.425781 13.296875-23.242187l130.703125-76.886719 130.703125 76.878906c8.199219 4.824219 13.296875 13.726563 13.296875 23.238282v2.195312c0 14.871094-12.097656 26.964844-26.960938 26.964844zm0 0" fill="#f0bc5e"/></svg>