<svg height="497pt" viewBox="0 0 497 497.92" width="497pt" xmlns="http://www.w3.org/2000/svg"><path d="m480.460938 481.921875h16v16h-16zm0 0"/><path d="m.460938 481.921875h16v16h-16zm0 0"/><path d="m448.460938 379.921875h-16v102h-32v-56c0-22.058594-17.945313-40-40-40h-16c-22.058594 0-40 17.941406-40 40v56h-32v-102h-16v102h-48v-80h-80v80h-64v-112h168v-16h-200v-16h232v-16h-228.183594l25.597656-64h213.167969l19.265625 48.167969 14.855468-5.9375-23.289062-58.230469h-21.414062v-120h-16v120h-32v-56c0-13.234375-10.769532-24-24-24h-48c-13.234376 0-24 10.765625-24 24v56h-32v-120h-16v120h-21.417969l-34.582031 86.460937v41.539063h32v112h-16v16h432v-16h-16zm-312-194c0-4.410156 3.589843-8 8-8h48c4.40625 0 8 3.589844 8 8v56h-64zm184 240c0-13.234375 10.765624-24 24-24h16c13.230468 0 24 10.765625 24 24v56h-64zm-176-8h48v64h-48zm0 0"/><path d="m168.460938 145.921875c13.230468 0 24-10.769531 24-24 0-13.234375-10.769532-24-24-24-13.234376 0-24 10.765625-24 24 0 13.230469 10.765624 24 24 24zm0-32c4.40625 0 8 3.589844 8 8 0 4.40625-3.59375 8-8 8-4.410157 0-8-3.59375-8-8 0-4.410156 3.589843-8 8-8zm0 0"/><path d="m416.460938 318.71875h16v-20.796875h16v44.261719h16v-92.261719h-48zm32-52.796875v16h-16v-16zm0 0"/><g fill="#f0bc5e"><path d="m454.460938 393.921875c-5.59375 0-11.136719-1.851563-15.601563-5.203125l-86.398437-64.796875-86.410157 64.796875c-4.453125 3.351562-10 5.203125-15.589843 5.203125-14.335938 0-26-11.664063-26-26v-4.875c0-8.238281 3.96875-16.085937 10.613281-20.957031v-.011719l117.386719-86.078125 117.382812 86.078125c6.648438 4.882813 10.617188 12.722656 10.617188 20.96875v4.875c0 14.335937-11.664063 26-26 26zm0 0"/><path d="m270.460938 137.921875c-5.59375 0-11.136719-1.851563-15.601563-5.203125l-86.398437-64.796875-86.410157 64.796875c-4.453125 3.351562-10 5.203125-15.589843 5.203125-14.335938 0-26-11.664063-26-26v-4.875c0-8.238281 3.96875-16.085937 10.613281-20.957031v-.011719l117.386719-86.078125 117.382812 86.078125c6.648438 4.882813 10.617188 12.722656 10.617188 20.96875v4.875c0 14.335937-11.664063 26-26 26zm0 0"/></g></svg>