<svg height="496pt" viewBox="0 0 496 496" width="496pt" xmlns="http://www.w3.org/2000/svg"><g fill="#f0bc5e"><path d="m269.464844 254.113281-1.328125-34.503906c-17.890625-14.183594-28.136719-35.425781-28.136719-58.257813v-65.351562c0-52.9375-43.0625-96-96-96s-96 43.0625-96 96v65.351562c0 25.976563-13.832031 50.425782-36.121094 63.792969l-7.191406 4.320313 4.65625 6.976562c.59375.886719 12.023438 17.648438 30.65625 24.574219.910156-.320313 1.761719-.75 2.695312-1.023437l69.304688-19.992188v-26.046875h.214844c-7.992188-5.5625-14.535156-13.082031-18.75-21.953125h-5.464844c-17.671875 0-32-14.328125-32-32s14.328125-32 32-32v-16c20.144531 0 39.113281-9.488281 51.199219-25.601562l4.800781-6.398438 4.800781 6.398438c12.085938 16.113281 31.054688 25.601562 51.199219 25.601562v16c17.671875 0 32 14.328125 32 32s-14.328125 32-32 32h-5.464844c-4.222656 8.871094-10.757812 16.390625-18.75 21.953125h.214844l1.632812 26.519531 67.671876 19.519532c7.183593 2.070312 13.558593 5.75 18.847656 10.535156.28125-6.054688 2.128906-11.695313 5.3125-16.414063zm0 0"/><path d="m352 112c-52.9375 0-96 43.0625-96 96v64h8c0-17.671875 14.328125-32 32-32l2.65625-7.96875c3.191406-9.574219 12.152344-16.03125 22.246094-16.03125 4.632812 0 9.152344 1.367188 13.007812 3.9375 10.960938 7.300781 25.234375 7.300781 36.1875 0 3.847656-2.570312 8.375-3.9375 13-3.9375 10.09375 0 19.054688 6.457031 22.246094 16.03125l2.65625 7.96875c17.671875 0 32 14.328125 32 32h8v-64c0-52.9375-43.0625-96-96-96zm0 0"/><path d="m416 496h-128v-112h128zm0 0"/><path d="m192 384h-96v-112h96zm0 0"/></g><path d="m128 304h32v16h-32zm0 0"/><path d="m128 336h32v16h-32zm0 0"/><path d="m336 416h32v16h-32zm0 0"/><path d="m336 448h32v16h-32zm0 0"/><path d="m455.519531 364.304688-63.519531-18.320313v-16.105469c6.160156-4.941406 11.351562-11.015625 15.34375-17.878906h.65625c22.054688 0 40-17.945312 40-40 0-20.046875-14.824219-36.695312-34.089844-39.558594l-.972656-2.9375c-4.289062-12.863281-16.28125-21.503906-29.839844-21.503906-6.234375 0-12.265625 1.832031-17.441406 5.28125-8.296875 5.527344-19.015625 5.527344-27.3125 0-5.175781-3.449219-11.207031-5.28125-17.441406-5.28125-13.558594 0-25.542969 8.640625-29.832032 21.503906l-.972656 2.9375c-14.1875 2.109375-25.914062 11.726563-31.136718 24.636719-3.625-1.988281-7.457032-3.621094-11.433594-4.765625l-63.527344-18.328125v-16.105469c6.160156-4.941406 11.351562-11.015625 15.34375-17.878906h.65625c22.054688 0 40-17.945312 40-40 0-19.320312-13.769531-35.480469-32-39.191406v-16.808594h-8c-17.527344 0-34.28125-8.375-44.800781-22.40625l-11.199219-14.921875-11.199219 14.929687c-10.519531 14.023438-27.273437 22.398438-44.800781 22.398438h-8v16.808594c-18.230469 3.710937-32 19.871094-32 39.191406 0 22.054688 17.945312 40 40 40h.65625c3.984375 6.863281 9.183594 12.9375 15.34375 17.878906v16.105469l-63.519531 18.320313c-23.832031 6.878906-40.480469 29-40.480469 53.808593v45.886719h96v-16h-32v-32h-16v32h-32v-29.886719c0-17.714843 11.886719-33.511719 28.910156-38.433593l64.167969-18.511719 18.273437 22.832031h33.289063l18.269531-22.832031 64.179688 18.511719c4.75 1.367187 9.214844 3.65625 13.140625 6.648437.707031 11.960937 6.625 22.457031 15.59375 29.320313.054687.824218.175781 1.632812.175781 2.464843v29.886719h-32v-32h-16v32h-32v16h96v-40.808594c2.585938.527344 5.265625.808594 8 .808594h.65625c3.984375 6.863281 9.183594 12.9375 15.34375 17.878906v16.105469l-63.519531 18.320313c-23.832031 6.878906-40.480469 29-40.480469 53.808593v45.886719h80v-16h-16v-32h-16v32h-32v-29.886719c0-17.714843 11.886719-33.511719 28.910156-38.433593l64.167969-18.511719 18.273437 22.832031h33.289063l18.269531-22.832031 64.167969 18.511719c17.035156 4.914062 28.921875 20.71875 28.921875 38.433593v29.886719h-32v-32h-16v32h-16v16h80v-45.886719c0-24.808593-16.648438-46.929687-40.480469-53.808593zm-39.519531-84.304688v-30.527344c9.289062 3.3125 16 12.113282 16 22.527344 0 11.105469-7.617188 20.382812-17.878906 23.113281 1.183594-4.855469 1.878906-9.898437 1.878906-15.113281zm-208-112v-30.527344c9.289062 3.3125 16 12.113282 16 22.527344 0 11.105469-7.617188 20.382812-17.878906 23.113281 1.183594-4.855469 1.878906-9.898437 1.878906-15.113281zm-144-8c0-10.414062 6.710938-19.214844 16-22.527344v30.527344c0 5.214844.695312 10.257812 1.878906 15.113281-10.261718-2.730469-17.878906-12.007812-17.878906-23.113281zm104 77.191406-24 30-24-30v-9.902344c7.414062 3.015626 15.511719 4.710938 24 4.710938s16.585938-1.695312 24-4.710938zm-24-21.191406c-26.472656 0-48-21.527344-48-48v-48.457031c18.703125-2.117188 36.097656-11.574219 48-26.296875 11.902344 14.722656 29.296875 24.179687 48 26.296875v48.457031c0 26.472656-21.527344 48-48 48zm128 56c0-10.414062 6.710938-19.214844 16-22.527344v30.527344c0 5.214844.695312 10.257812 1.878906 15.113281-10.261718-2.730469-17.878906-12.007812-17.878906-23.113281zm104 77.191406-24 30-24-30v-9.902344c7.414062 3.015626 15.511719 4.710938 24 4.710938s16.585938-1.695312 24-4.710938zm-24-21.191406c-26.472656 0-48-21.527344-48-48v-38.703125l2.246094-6.738281c2.105468-6.320313 8-10.558594 14.65625-10.558594 3.066406 0 6.027344.894531 8.570312 2.59375 13.6875 9.125 31.367188 9.125 45.0625 0 2.535156-1.699219 5.496094-2.59375 8.5625-2.59375 6.664063 0 12.550782 4.238281 14.65625 10.558594l2.246094 6.738281v38.703125c0 26.472656-21.527344 48-48 48zm0 0"/></svg>