<svg height="496pt" viewBox="0 -3 496 496" width="496pt" xmlns="http://www.w3.org/2000/svg"><path d="m184 146.734375h304v32h-304zm0 0" fill="#f0bc5e"/><path d="m496 186.734375v-43.574219l-160-143.160156-47.878906 42.839844v-.105469h-196.242188l-91.421875 128h15.542969v177.472656c-9.289062 3.3125-16 12.113281-16 22.527344v24h177.472656c-.898437 2.511719-1.472656 5.1875-1.472656 8v24h81.609375v-16h-65.609375v-8c0-4.414063 3.59375-8 8-8h57.609375v-16h-49.609375v-192h256v192h-32v-128h-96v72.417969h16v-56.417969h64v112h-1.609375v16h57.609375c4.40625 0 8 3.585937 8 8v8h-65.609375v16h81.609375v-24c0-10.414063-6.710938-19.214844-16-22.527344v-193.472656zm-16-36.421875v20.421875h-288v-20.421875l144-128.839844zm-379.878906-91.578125h170.238281l-94.359375 84.425781v11.574219h-144.457031zm-84.121094 312c0-4.414063 3.59375-8 8-8h168v16h-176zm176-24h-160v-176h144v16h16zm0 0"/><path d="m320 202.734375h-96v80h96zm-16 32h-24v-16h24zm-40-16v16h-24v-16zm-24 32h24v16h-24zm40 16v-16h24v16zm0 0"/><path d="m336 490.734375c-48.519531 0-88-39.476563-88-88 0-48.519531 39.480469-88 88-88s88 39.480469 88 88c0 48.523437-39.480469 88-88 88zm0 0" fill="#f0bc5e"/><path d="m336 378.734375c4.40625 0 8 3.585937 8 8h16c0-10.414063-6.710938-19.214844-16-22.527344v-17.472656h-16v17.472656c-9.289062 3.3125-16 12.113281-16 22.527344 0 13.234375 10.769531 24 24 24 4.40625 0 8 3.585937 8 8 0 4.417969-3.59375 8-8 8s-8-3.582031-8-8h-16c0 10.417969 6.710938 19.21875 16 22.53125v17.46875h16v-17.46875c9.289062-3.3125 16-12.113281 16-22.53125 0-13.230469-10.769531-24-24-24-4.40625 0-8-3.582031-8-8 0-4.414063 3.59375-8 8-8zm0 0"/><path d="m48 266.734375h112v-80h-112zm16-32h32v16h-32zm48 16v-16h32v16zm32-32h-32v-16h32zm-48-16v16h-32v-16zm0 0"/></svg>