<svg height="499pt" viewBox="0 -4 499.312 499" width="499pt" xmlns="http://www.w3.org/2000/svg"><path d="m208 235.46875h80v72h-80zm0 0" fill="#f0bc5e"/><path d="m480 299.46875v-160h19.3125l-139.3125-139.3125-100.230469 100.230469-11.769531-12.679688-33.199219 35.761719h-154.800781l-60 80h16v96c-8.824219 0-16 7.175781-16 16v16c0 8.824219 7.175781 16 16 16h136v64.167969c-1.726562.007812-3.449219-.039063-5.199219.214843-9.066406-19.640624-28.640625-32.382812-50.800781-32.382812s-41.734375 12.742188-50.800781 32.382812c-24.191407-3.535156-45.199219 15.839844-45.199219 39.617188 0 22.054688 17.945312 40 40 40h416c22.054688 0 40-17.945312 40-40 0-23.777344-20.96875-43.152344-45.199219-39.617188-9.066406-19.640624-28.640625-32.382812-50.800781-32.382812s-41.734375 12.742188-50.800781 32.382812c-1.75-.253906-3.472657-.207031-5.199219-.214843v-64.167969h136c8.824219 0 16-7.175781 16-16v-16c0-8.824219-7.175781-16-16-16zm-16 0h-112v-80h18.34375l-74.289062-80h167.945312zm-128-80v80h-176v-80zm24-196.6875 100.6875 100.6875h-179.488281l-10.542969-11.351562zm-26.34375 180.6875h-171.3125l85.65625-92.242188zm-265.65625-64h131.945312l-44.570312 48h-123.375zm-36 64h108.511719l-14.855469 16h18.34375v80h-112zm8 272c-13.230469 0-24-10.769531-24-24 0-13.234375 10.769531-24 24-24 2.351562 0 4.832031.457031 7.59375 1.375l7.765625 2.617188 2.425781-7.832032c5.207032-16.839844 20.566406-28.160156 38.214844-28.160156s33.007812 11.320312 38.214844 28.167969l2.425781 7.832031 7.765625-2.617188c2.746094-.917968 5.226562-1.3125 7.59375-1.34375v47.960938zm128-128h16v128h-16zm128 0v128h-96v-128zm55.59375 81.375 7.765625 2.617188 2.425781-7.832032c5.207032-16.839844 20.566406-28.160156 38.214844-28.160156s33.007812 11.320312 38.214844 28.167969l2.425781 7.832031 7.765625-2.617188c2.761719-.925781 5.242188-1.382812 7.59375-1.382812 13.230469 0 24 10.765625 24 24 0 13.230469-10.769531 24-24 24h-112v-47.960938c2.367188.023438 4.847656.417969 7.59375 1.335938zm-23.59375 46.625h-16v-128h16zm152-144h-464l-.007812-16h464.007812zm0 0"/><g fill="#f0bc5e"><path d="m128 283.46875h-80v-64h80zm0 0"/><path d="m448 203.46875h-64v-48h64zm0 0"/><path d="m448 283.46875h-64v-48h64zm0 0"/></g></svg>