<svg height="496pt" viewBox="-64 0 496 496" width="496pt" xmlns="http://www.w3.org/2000/svg"><path d="m136 184-48-176h32l48 176zm0 0" fill="#f0bc5e"/><path d="m232 184 48-176h-32l-48 176zm0 0" fill="#f0bc5e"/><path d="m280 176h-5.527344l48-176h-112.585937l-25.886719 94.929688-25.886719-94.929688h-112.585937l48 176h-5.527344c-8.824219 0-16 7.175781-16 16v16c0 8.824219 7.175781 16 16 16h48v47.488281h16v-47.488281h64v47.488281h16v-47.488281h48c8.824219 0 16-7.175781 16-16v-16c0-8.824219-7.175781-16-16-16zm-57.886719-160h79.414063l-43.640625 160h-79.414063zm-155.640625 0h79.414063l29.816406 109.335938-13.816406 50.664062h-51.78125zm213.527344 192h-192v-16h192zm0 0"/><path d="m184 496c-66.167969 0-120-53.832031-120-120s53.832031-120 120-120 120 53.832031 120 120-53.832031 120-120 120zm0-200c-44.113281 0-80 35.886719-80 80s35.886719 80 80 80 80-35.886719 80-80-35.886719-80-80-80zm0 0" fill="#f0bc5e"/><path d="m184 288c-48.519531 0-88 39.480469-88 88s39.480469 88 88 88 88-39.480469 88-88-39.480469-88-88-88zm0 160c-39.695312 0-72-32.296875-72-72s32.304688-72 72-72 72 32.296875 72 72-32.304688 72-72 72zm0 0"/><path d="m16 240h16v16h-16zm0 0"/><path d="m16 272h16v16h-16zm0 0"/><path d="m32 256h16v16h-16zm0 0"/><path d="m0 256h16v16h-16zm0 0"/><path d="m336 280h16v16h-16zm0 0"/><path d="m336 312h16v16h-16zm0 0"/><path d="m352 296h16v16h-16zm0 0"/><path d="m320 296h16v16h-16zm0 0"/><path d="m336 104h16v16h-16zm0 0"/><path d="m336 136h16v16h-16zm0 0"/><path d="m352 120h16v16h-16zm0 0"/><path d="m320 120h16v16h-16zm0 0"/><path d="m24 376h16v16h-16zm0 0"/><path d="m24 408h16v16h-16zm0 0"/><path d="m40 392h16v16h-16zm0 0"/><path d="m8 392h16v16h-16zm0 0"/></svg>