<svg height="496pt" viewBox="0 0 496 496" width="496pt" xmlns="http://www.w3.org/2000/svg"><g fill="#f0bc5e"><path d="m200 192h96v48h-96zm0 0"/><path d="m200 368h96v120h-96zm0 0"/><path d="m448 360h-96v-64h96zm0 0"/><path d="m144 360h-96v-64h96zm0 0"/></g><path d="m480 423.945312v-191.945312h-16v184.6875c-4.207031-.832031-8.648438-.976562-13.199219-.304688-9.066406-19.640624-28.640625-32.382812-50.800781-32.382812s-41.734375 12.742188-50.800781 32.382812c-7.550781-1.109374-14.800781.015626-21.199219 2.824219v-79.488281l-80-53.335938-80 53.335938v79.472656c-6.390625-2.800781-13.632812-3.917968-21.199219-2.808594-9.066406-19.640624-28.640625-32.382812-50.800781-32.382812s-41.734375 12.742188-50.800781 32.382812c-4.550781-.671874-8.992188-.527343-13.199219.304688v-184.6875h-16v191.953125c-9.671875 7.34375-16 19.023437-16 32.046875 0 22.054688 17.945312 40 40 40h416c22.054688 0 40-17.945312 40-40 0-13.023438-6.320312-24.710938-16-32.054688zm-232-118.328124 64 42.664062v83.710938c-5.007812 6.71875-8 15.054687-8 24.007812 0 9.039062 3.128906 17.296875 8.207031 24h-128.414062c5.078125-6.703125 8.207031-14.960938 8.207031-24 0-8.96875-2.984375-17.304688-8-24.03125v-83.6875zm-208 174.382812c-13.230469 0-24-10.769531-24-24s10.769531-24 24-24c2.351562 0 4.832031.457031 7.59375 1.375l7.765625 2.617188 2.425781-7.832032c5.207032-16.839844 20.566406-28.160156 38.214844-28.160156s33.007812 11.320312 38.214844 28.167969l2.425781 7.832031 7.765625-2.617188c2.761719-.925781 5.242188-1.382812 7.59375-1.382812 13.230469 0 24 10.769531 24 24s-10.769531 24-24 24zm416 0h-112c-13.230469 0-24-10.769531-24-24s10.769531-24 24-24c2.351562 0 4.832031.457031 7.59375 1.375l7.765625 2.617188 2.425781-7.832032c5.207032-16.839844 20.566406-28.160156 38.214844-28.160156s33.007812 11.320312 38.214844 28.167969l2.425781 7.832031 7.765625-2.617188c2.761719-.925781 5.242188-1.382812 7.59375-1.382812 13.230469 0 24 10.769531 24 24s-10.769531 24-24 24zm0 0"/><path d="m69.640625 96h356.726563l38.105468 106.6875 15.070313-5.382812-41.902344-117.304688h-45.640625v-32h-16v-48h-48v48h-16v32h-128v-32h-16v-48h-48v48h-16v32h-45.640625l-41.894531 117.3125 15.070312 5.382812zm274.359375-80h16v32h-16zm-16 48h48v16h-48zm-192-48h16v32h-16zm-16 48h48v16h-48zm0 0"/><path d="m416 280v-106.558594l11 8.796875 9.992188-12.496093-84.992188-67.988282-85 68 9.992188 12.492188 11.007812-8.804688v106.558594zm-80-16v-48c0-4.40625 3.59375-8 8-8h16c4.40625 0 8 3.59375 8 8v48zm64-103.351562v103.351562h-16v-48c0-13.230469-10.769531-24-24-24h-16c-13.230469 0-24 10.769531-24 24v48h-16v-103.351562l48-38.402344zm0 0"/><path d="m208 280v-106.558594l11 8.796875 9.992188-12.496093-84.992188-67.988282-85 68 9.992188 12.492188 11.007812-8.804688v106.558594zm-80-16v-48c0-4.40625 3.59375-8 8-8h16c4.40625 0 8 3.59375 8 8v48zm64-103.351562v103.351562h-16v-48c0-13.230469-10.769531-24-24-24h-16c-13.230469 0-24 10.769531-24 24v48h-16v-103.351562l48-38.402344zm0 0"/><path d="m344 144h16v16h-16zm0 0"/><path d="m136 144h16v16h-16zm0 0"/><path d="m480 192h-64v48h64c8.824219 0 16-7.175781 16-16v-16c0-8.824219-7.175781-16-16-16zm0 0" fill="#f0bc5e"/><path d="m16 192c-8.824219 0-16 7.175781-16 16v16c0 8.824219 7.175781 16 16 16h64v-48zm0 0" fill="#f0bc5e"/></svg>