<svg height="496pt" viewBox="0 0 496 496" width="496pt" xmlns="http://www.w3.org/2000/svg"><path d="m312 248h64v168h-64zm0 0" fill="#f0bc5e"/><path d="m68.6875 0-68.6875 68.6875v299.3125h304v20.6875l-107.3125 107.3125h255.945312c23.910157 0 43.367188-19.457031 43.367188-43.367188v-452.632812zm-4.6875 27.3125v36.6875h-36.6875zm275.574219 183.421875c1.691406-3.367187 7.160156-3.375 8.839843 0l14.640626 29.265625h-38.109376zm28.425781 245.265625c0 13.230469-10.769531 24-24 24s-24-10.769531-24-24v-200h48zm-64-136h-32v-80h35.054688l-3.054688 6.113281zm0 91.3125v44.6875c0 9.039062 3.128906 17.296875 8.207031 24h-76.894531zm176 41.320312c0 15.085938-12.28125 27.367188-27.367188 27.367188h-76.839843c5.078125-6.703125 8.207031-14.960938 8.207031-24v-25.472656c2.511719.898437 5.183594 1.472656 8 1.472656 13.230469 0 24-10.769531 24-24v-72h-16v72c0 4.40625-3.59375 8-8 8s-8-3.59375-8-8v-76.6875l96-96zm-96-143.945312v-62.574219l-21.265625-42.527343c-2.292969-4.609376-6.183594-7.914063-10.734375-9.808594v-25.777344h-16v25.777344c-4.550781 1.894531-8.433594 5.199218-10.734375 9.796875l-10.210937 20.425781h-59.054688v96h-96v-152h-16v168h160v16h-288v-272h64v-64h400v196.6875zm0 0"/><path d="m90.34375 189.65625 11.3125-11.3125-37.65625-37.65625-37.65625 37.65625 11.3125 11.3125 18.34375-18.34375v137.375l-18.34375-18.34375-11.3125 11.3125 37.65625 37.65625 37.65625-37.65625-11.3125-11.3125-18.34375 18.34375v-137.375zm0 0"/><path d="m440 196.6875v-137.375l18.34375 18.34375 11.3125-11.3125-37.65625-37.65625-37.65625 37.65625 11.3125 11.3125 18.34375-18.34375v137.375l-18.34375-18.34375-11.3125 11.3125 37.65625 37.65625 37.65625-37.65625-11.3125-11.3125zm0 0"/><path d="m176 256h64v-64h-64zm16-48h32v32h-32zm0 0"/><path d="m343.335938 176h-190.671876c-13.601562 0-24.664062-11.0625-24.664062-24.664062 0-6.894532 2.910156-13.527344 8-18.183594l78.800781-72.230469c9.078125-8.335937 20.871094-12.921875 33.199219-12.921875s24.121094 4.585938 33.199219 12.910156l78.800781 72.242188c5.089844 4.65625 8 11.289062 8 18.183594 0 13.601562-11.0625 24.664062-24.664062 24.664062zm0 0" fill="#f0bc5e"/></svg>