<svg height="497pt" viewBox="0 0 497 497.464" width="497pt" xmlns="http://www.w3.org/2000/svg"><path d="m483.808594 93.207031-147.578125-93.207031-88 55.574219v-22.109375h-48v52.429687l-11.574219 7.3125c-7.785156 4.921875-12.425781 13.34375-12.425781 22.535157v3.074218c0 14.695313 11.953125 26.648438 26.648437 26.648438 4.695313 0 9.28125-1.28125 13.351563-3.640625v63.015625h16v-72.945313l104-64.992187 104 65v173.5625h-27.671875v16h43.671875v-179.640625c4.074219 2.359375 8.648437 3.640625 13.355469 3.640625 14.695312 0 26.644531-11.953125 26.644531-26.648438v-3.074218c0-9.191407-4.636719-17.613282-12.421875-22.535157zm-267.578125-43.742187h16v16.222656l-16 10.105469zm264 69.351562c0 5.871094-4.773438 10.648438-10.644531 10.648438-1.992188 0-3.945313-.5625-5.648438-1.617188l-127.707031-79.824218-127.695313 79.816406c-1.703125 1.0625-3.65625 1.625-5.65625 1.625-5.871094 0-10.648437-4.777344-10.648437-10.648438v-3.074218c0-3.671876 1.859375-7.046876 4.96875-9.007813l139.03125-87.804687 139.035156 87.8125c3.109375 1.953124 4.964844 5.328124 4.964844 9zm0 0"/><path d="m296.230469 169.464844h80v-64h-80zm16-48h48v32h-48zm0 0"/><path d="m144.230469 145.464844c-52.933594 0-96 43.0625-96 96v64h8c0-13.257813 10.746093-24 24-24h8v-16c20.488281 0 40.136719-8.136719 54.625-22.625l1.375-1.375 1.433593 1.421875c14.464844 14.394531 34.015626 22.503906 54.414063 22.578125h.152344v16h8c13.257812 0 24 10.742187 24 24h8v-64c0-52.9375-43.0625-96-96-96zm0 0" fill="#f0bc5e"/><path d="m247.753906 397.769531-63.523437-18.320312v-16.105469c8.457031-6.792969 15.144531-15.679688 19.289062-25.878906h4.710938c11.792969 0 22-6.480469 27.554687-16h24.117188v-16h-19.671875c0-17.648438-14.351563-32-32-32v-8l-.152344-7.96875-7.964844-.03125c-18.433593-.066406-35.761719-7.257813-48.816406-20.25l-7.089844-7.046875-7.015625 7.015625c-13.070312 13.082031-30.464844 20.28125-48.960937 20.28125h-8v16c-17.644531 0-32 14.351562-32 32 0 17.648437 14.355469 32 32 32h4.714843c4.144532 10.199218 10.832032 19.085937 19.285157 25.878906v16.105469l-63.519531 18.320312c-23.832032 6.878907-40.480469 29-40.480469 53.804688v45.890625h288v-45.890625c0-24.804688-16.644531-46.925781-40.476563-53.804688zm-57.121094.175781-10.792968 37.765626-23.632813-18.902344 22.34375-22.34375zm33.597657-92.480468c0 8.824218-7.175781 16-16 16h-.550781c.328124-2.625.550781-5.289063.550781-8v-24c8.824219 0 16 7.175781 16 16zm-144 16c-8.824219 0-16-7.175782-16-16 0-8.824219 7.175781-16 16-16v24c0 2.710937.226562 5.375.554687 8zm16-8v-40.367188c17.832031-1.648437 34.496093-8.792968 48.007812-20.601562 13.515625 11.777344 30.167969 18.910156 47.992188 20.582031v40.386719c0 26.472656-21.527344 48-48 48-26.46875 0-48-21.527344-48-48zm48 64c8.488281 0 16.585937-1.695313 24-4.710938v9.398438l-24 24-24-24v-9.398438c7.417969 3.015625 15.511719 4.710938 24 4.710938zm-34.320313 16.992187 22.347656 22.34375-23.632812 18.902344-10.792969-37.757813zm162.320313 87.007813h-48v-32h-16v32h-128v-32h-16v32h-48v-29.890625c0-17.710938 11.890625-33.511719 28.914062-38.429688l37.3125-10.769531 17.382813 60.839844 44.390625-35.503906 44.394531 35.511718 17.382812-60.839844 37.3125 10.769532c17.023438 4.902344 28.910157 20.710937 28.910157 38.421875zm0 0"/><path d="m336.230469 377.464844c-48.519531 0-88-39.480469-88-88 0-48.519532 39.480469-88 88-88 48.523437 0 88 39.480468 88 88 0 48.519531-39.476563 88-88 88zm0 0" fill="#f0bc5e"/><path d="m336.230469 265.464844c4.417969 0 8 3.582031 8 8h16c0-10.417969-6.710938-19.21875-16-22.527344v-17.472656h-16v17.472656c-9.285157 3.308594-16 12.109375-16 22.527344 0 13.230468 10.769531 24 24 24 4.417969 0 8 3.582031 8 8 0 4.414062-3.582031 8-8 8-4.414063 0-8-3.585938-8-8h-16c0 10.414062 6.714843 19.214844 16 22.527344v17.472656h16v-17.472656c9.289062-3.3125 16-12.113282 16-22.527344 0-13.234375-10.765625-24-24-24-4.414063 0-8-3.585938-8-8 0-4.417969 3.585937-8 8-8zm0 0"/></svg>