<svg height="496pt" viewBox="0 0 496 496" width="496pt" xmlns="http://www.w3.org/2000/svg"><g fill="#f0bc5e"><path d="m176 224h-48v-96h48zm0 0"/><path d="m208 352h-176v-64h104v24h72zm0 0"/><path d="m400 128h-96l-16 40h136zm0 0"/></g><path d="m384 44.6875v-12.6875c0-17.648438-14.351562-32-32-32s-32 14.351562-32 32v11.832031l-112 78.398438v-26.230469h-32v-32h-112v32h-32v144h-32v256h240v-176h32v-48h-32v-32h-32v-16h96v224h-8c-22.054688 0-40 17.945312-40 40v8h192v-8c0-22.054688-17.945312-40-40-40h-8v-224h96v-67.3125zm-304 35.3125h80v16h-80zm144 400h-208v-224h176v16h-64v48h96zm32-176h-112v-16h112zm-32-48v16h-16v-16zm-32-16h-144v-128h144v21.433594l-32 22.398437v68.167969h32zm139.3125 48 20.6875-20.6875 20.6875 20.6875zm41.375 16-20.6875 20.6875-20.6875-20.6875zm-52.6875-27.3125v-41.375l20.6875 20.6875zm0 38.625 20.6875 20.6875-20.6875 20.6875zm11.3125 52.6875 20.6875-20.6875 20.6875 20.6875zm41.375 16-20.6875 20.6875-20.6875-20.6875zm-32 32-20.6875 20.6875v-41.375zm11.3125 11.3125 20.6875 20.6875h-41.375zm11.3125-11.3125 20.6875-20.6875v41.375zm20.6875-59.3125-20.6875-20.6875 20.6875-20.6875zm-20.6875-100.6875 20.6875-20.6875v41.375zm-11.3125-11.3125-20.6875-20.6875h41.375zm78.632812 235.3125h-157.265624c3.304687-9.3125 12.199218-16 22.632812-16h112c10.433594 0 19.328125 6.6875 22.632812 16zm49.367188-272h-304v-32h304zm-298.046875-48 138.046875-96.632812v64.632812h16v-96c0-8.824219 7.175781-16 16-16s16 7.175781 16 16v96h16v-60.6875l92.6875 92.6875zm0 0"/><path d="m112 224h-48v-96h48zm0 0" fill="#f0bc5e"/><path d="m208 448h-176v-64h176zm0 0" fill="#f0bc5e"/></svg>