<svg height="496pt" viewBox="-48 0 496 496" width="496pt" xmlns="http://www.w3.org/2000/svg"><path d="m304 360h-16v-25.945312c0-10.34375 2.296875-20.773438 6.625-30.167969l88.304688-191.3125c.710937-1.550781 1.070312-3.191407 1.070312-4.894531 0-6.441407-5.238281-11.679688-11.679688-11.679688-4.609374 0-8.617187 2.472656-10.601562 6.457031l-47.832031 95.664063c-3.054688 6.09375-9.183594 9.886718-16 9.886718-9.863281-.007812-17.886719-8.03125-17.886719-17.894531v-5.378906c0-.894531.0625-1.78125.199219-2.671875l23.695312-125.949219c.050781-.351562.105469-1.042969.105469-1.730469 0-8.230468-6.167969-14.382812-13.753906-14.382812h-1.207032c-6.078124 0-11.367187 4.328125-12.566406 10.289062l-27.425781 136.054688c-1.292969 7.800781-8.207031 13.65625-16.382813 13.65625-9.191406 0-16.664062-7.472656-16.664062-16.664062v-154.519532c0-7.0625-5.753906-12.816406-12.816406-12.816406h-6.367188c-7.0625 0-12.816406 5.753906-12.816406 12.816406v154.519532c0 9.191406-7.472656 16.664062-16.664062 16.664062-8.175782 0-15.089844-5.832031-16.433594-13.878906-2.015625-12.128906-6.535156-32.664063-11.316406-54.402344-5.945313-27.015625-12.683594-57.640625-16.464844-80.351562-1.097656-6.582032-6.800782-11.367188-13.570313-11.367188-4.167969 0-7.382812 1.335938-9.808593 3.761719-2.421876 2.421875-3.742188 5.636719-3.742188 9.070312l.542969 6.167969 23.257812 138.992188c.144531 1.054687.199219 1.878906.199219 2.710937v4.871094c0 10.160156-8.265625 18.425781-18.425781 18.425781-6.167969 0-11.902344-3.0625-15.328125-8.199219l-37.613282-56.425781c-3.082031-4.613281-8.234374-7.375-13.777343-7.375h-2.296875c-9.125 0-16.558594 7.433594-16.558594 16.558594 0 3.28125.960938 6.457031 2.785156 9.183594l81.117188 121.699218c7.914062 11.863282 12.097656 25.671875 12.097656 39.933594v20.625h-16v-20.625c0-11.09375-3.257812-21.832031-9.40625-31.0625l-81.121094-121.6875c-3.585937-5.359375-5.472656-11.609375-5.472656-18.066406 0-17.949219 14.609375-32.558594 32.558594-32.558594h2.296875c10.90625 0 21.03125 5.414062 27.097656 14.496094l37.613281 56.425781c1.175782 1.789063 4.433594.804687 4.433594-1.347656v-4.871094l-23.320312-139.710937-.65625-7.496094c-.03125-8.351563 2.960937-15.601563 8.410156-21.039063 5.4375-5.457031 12.679687-8.457031 20.382812-8.457031 15.351563 0 27.695313 10.398438 30.085938 24.734375 3.714844 22.3125 10.410156 52.722656 16.3125 79.546875 4.832031 21.949219 9.394531 42.679688 11.480468 55.207031.105469.640625 1.304688.542969 1.304688-.152343v-154.519532c0-15.886718 12.929688-28.816406 28.816406-28.816406h6.367188c15.886718 0 28.816406 12.929688 28.816406 28.816406v154.519532c0 .679687 1.191406.769531 1.320312.113281l27.464844-136.328125c2.710938-13.402344 14.582032-23.121094 28.253906-23.121094h1.207032c16.410156 0 29.753906 13.328125 29.753906 29.703125 0 2.152344-.113281 3.609375-.328125 5.058594l-23.703125 125.992187.03125 5.359375c0 1.75 2.800781 2.40625 3.585938.839844l47.820312-95.65625c4.714844-9.433594 14.203125-15.296875 24.753906-15.296875 15.425782 0 27.839844 12.414062 27.839844 27.679688 0 4.039062-.855469 7.945312-2.550781 11.601562l-88.289063 191.3125c-3.375 7.300781-5.160156 15.414062-5.160156 23.460938zm0 0"/><path d="m297.167969 496h-194.335938c-25.824219 0-46.832031-21.007812-46.832031-46.832031 0-7.214844 1.710938-14.464844 4.945312-20.9375l97.167969-194.335938c7.984375-15.972656 24.039063-25.894531 41.886719-25.894531s33.902344 9.921875 41.886719 25.886719l97.167969 194.328125c3.234374 6.488281 4.945312 13.730468 4.945312 20.953125 0 25.824219-21.007812 46.832031-46.832031 46.832031zm0 0" fill="#f0bc5e"/><path d="m200 464c-13.230469 0-24-10.769531-24-24s10.769531-24 24-24 24 10.769531 24 24-10.769531 24-24 24zm0-32c-4.40625 0-8 3.59375-8 8s3.59375 8 8 8 8-3.59375 8-8-3.59375-8-8-8zm0 0"/><path d="m200 400c-8.664062 0-15.9375-6.769531-16.550781-15.40625l-7.394531-103.472656c-.039063-.546875-.054688-1.105469-.054688-1.671875 0-12.929688 10.519531-23.449219 23.449219-23.449219h1.101562c12.929688 0 23.449219 10.519531 23.449219 23.449219 0 .566406-.015625 1.125-.0625 1.695312l-7.386719 103.449219c-.613281 8.636719-7.886719 15.40625-16.550781 15.40625zm-.550781-128c-4.113281 0-7.449219 3.335938-7.449219 7.449219l7.40625 104c.042969.613281 1.144531.613281 1.179688 0l7.390624-103.472657c.023438-4.640624-3.3125-7.976562-7.425781-7.976562zm0 0"/></svg>