<svg height="496pt" viewBox="-32 0 496 496" width="496pt" xmlns="http://www.w3.org/2000/svg"><path d="m336 288h16v72h-16zm0 0" fill="#f0bc5e"/><path d="m64 64v144h240v-144zm0 0" fill="#f0bc5e"/><path d="m88 288c13.230469 0 24-10.769531 24-24s-10.769531-24-24-24-24 10.769531-24 24 10.769531 24 24 24zm0-32c4.414062 0 8 3.59375 8 8s-3.585938 8-8 8-8-3.59375-8-8 3.585938-8 8-8zm0 0"/><path d="m149.65625 181.65625 34.34375-34.34375 34.34375 34.34375 11.3125-11.3125-34.34375-34.34375 34.34375-34.34375-11.3125-11.3125-34.34375 34.34375-34.34375-34.34375-11.3125 11.3125 34.34375 34.34375-34.34375 34.34375zm0 0"/><path d="m402.984375 241.671875-26.984375-7.703125v-4.074219c14.488281-10.132812 24-26.910156 24-45.886719v-16c0-22.28125-13.113281-41.511718-32-50.519531v-93.488281c0-13.230469-10.769531-24-24-24h-320c-13.230469 0-24 10.769531-24 24v416c0 13.230469 10.769531 24 24 24h264v32h112v-105.472656c2.511719.898437 5.183594 1.472656 8 1.472656 13.230469 0 24-10.769531 24-24v-87.863281c0-17.769531-11.929688-33.585938-29.015625-38.464844zm-4.390625 15.382813c10.246094 2.9375 17.40625 12.425781 17.40625 23.082031v31.863281h-16v-16h-16v56h-80v-56h-16v16h-16v-31.863281c0-10.664063 7.160156-20.152344 17.40625-23.082031l28.265625-8.070313 18.328125 18.328125v20.6875h16v-20.6875l18.328125-18.328125zm-78.59375-139.574219c-18.886719 9.007812-32 28.238281-32 50.519531v16c0 18.976562 9.511719 35.761719 24 45.886719v4.074219l-26.984375 7.710937c-17.085937 4.878906-29.015625 20.695313-29.015625 38.464844v87.863281c0 13.230469 10.769531 24 24 24 2.816406 0 5.488281-.574219 8-1.472656v25.472656h-240v-368h272zm24 135.207031-14.710938-14.710938c4.695313 1.28125 9.613282 2.023438 14.710938 2.023438s10.015625-.742188 14.710938-2.023438zm-72 75.3125h16v40c0 4.40625-3.585938 8-8 8s-8-3.59375-8-8zm112-160v16c0 22.054688-17.945312 40-40 40s-40-17.945312-40-40v-16c0-22.054688 17.945312-40 40-40s40 17.945312 40 40zm-360 280c-4.414062 0-8-3.59375-8-8v-416c0-4.40625 3.585938-8 8-8h320c4.414062 0 8 3.59375 8 8v88.640625c-2.625-.375-5.28125-.640625-8-.640625s-5.375.265625-8 .640625v-80.640625h-304v400h256v16zm360 32h-32v-96h-16v96h-32v-112h80zm24-104c-4.414062 0-8-3.59375-8-8v-40h16v40c0 4.40625-3.585938 8-8 8zm0 0"/><path d="m336 304h16v16h-16zm0 0"/></svg>