<svg height="497pt" viewBox="0 0 497.888 497" width="497pt" xmlns="http://www.w3.org/2000/svg"><path d="m176 402.210938h-144v-112h144zm0 0" fill="#f0bc5e"/><path d="m497.886719 434.210938-64-32h-177.886719v-32h208v-221.648438h-16v205.648438h-32v-88c0-13.230469-10.769531-24-24-24h-48c-13.230469 0-24 10.769531-24 24v88h-64v-160h-48v-45.648438h-16v45.648438h-131.632812l-28.367188 32.425781v-80.425781h136.152344v-16h-138.015625l38.398437-64h190.898438v-16h-199.960938l-57.601562 96h14.128906v98.703124l-16 18.289063v235.007813h256v-32h177.886719zm-161.886719-168c0-4.414063 3.585938-8 8-8h48c4.414062 0 8 3.585937 8 8v88h-64zm-56 152h144v32h-144zm-16 32h-32c-8.824219 0-16-7.175782-16-16 0-8.824219 7.175781-16 16-16h32zm176-4.941407v-22.113281l22.113281 11.054688zm-384-221.761719v34.703126h-30.367188zm184 258.703126h-224v-208h56v-64h168v192h-8c-17.648438 0-32 14.351562-32 32 0 17.648437 14.351562 32 32 32h8zm0 0"/><path d="m32 450.210938h152v16h-152zm0 0"/><path d="m32 418.210938h152v16h-152zm0 0"/><path d="m174.152344 271.339844-12.304688-10.253906-74.382812 89.277343-17.808594-17.808593-11.3125 11.3125 30.191406 30.191406zm0 0"/><path d="m88 226.210938h136v16h-136zm0 0"/><path d="m352 290.210938h16v16h-16zm0 0"/><path d="m392 138.210938h-128v48h128zm-16 32h-96v-16h96zm0 0"/><path d="m469.785156 162.210938c-5.449218 0-10.671875-1.65625-15.121094-4.800782h-.007812l-126.65625-89.40625-126.65625 89.40625c-4.457031 3.144532-9.679688 4.800782-15.128906 4.800782-14.453125 0-26.214844-11.757813-26.214844-26.214844v-4.296875c0-8.550781 4.183594-16.582031 11.183594-21.480469l156.816406-109.773438 156.816406 109.773438c7 4.890625 11.183594 12.921875 11.183594 21.480469v4.296875c0 14.457031-11.761719 26.214844-26.214844 26.214844zm0 0" fill="#f0bc5e"/></svg>