<svg height="661" viewBox="0 0 496 496" width="661" xmlns="http://www.w3.org/2000/svg"><g fill="#f0bc5e"><path d="M200 192h96v48h-96zm0 0M200 368h96v120h-96zm0 0M448 360h-96v-64h96zm0 0M144 360H48v-64h96zm0 0"/></g><path d="M480 424V232h-16v185l-13-1c-9-19-29-32-51-32s-42 13-51 32c-7-1-15 0-21 3v-79l-80-54-80 54v79c-6-3-14-4-21-3-9-19-29-32-51-32s-42 13-51 32l-13 1V232H16v192a40 40 0 0 0 24 72h416a40 40 0 0 0 24-72zM248 306l64 42v84a40 40 0 0 0 0 48H184a40 40 0 0 0 0-48v-84zM40 480a24 24 0 0 1 0-48l8 1 7 3 3-8c5-17 20-28 38-28s33 11 38 28l3 8 7-3 8-1a24 24 0 0 1 0 48zm416 0H344a24 24 0 0 1 0-48l8 1 7 3 3-8c5-17 20-28 38-28s33 11 38 28l3 8 7-3 8-1a24 24 0 0 1 0 48zm0 0M70 96h356l38 107 16-6-42-117h-46V48h-16V0h-48v48h-16v32H184V48h-16V0h-48v48h-16v32H58L16 197l16 6zm274-80h16v32h-16zm-16 48h48v16h-48zM136 16h16v32h-16zm-16 48h48v16h-48zm0 0"/><path d="M416 280V173l11 9 10-12-85-68-85 68 10 12 11-9v107zm-80-16v-48c0-4 4-8 8-8h16c4 0 8 4 8 8v48zm64-103v103h-16v-48c0-13-11-24-24-24h-16c-13 0-24 11-24 24v48h-16V161l48-39zm0 0M208 280V173l11 9 10-12-85-68-85 68 10 12 11-9v107zm-80-16v-48c0-4 4-8 8-8h16c4 0 8 4 8 8v48zm64-103v103h-16v-48c0-13-11-24-24-24h-16c-13 0-24 11-24 24v48H96V161l48-39zm0 0"/><path d="M344 144h16v16h-16zm0 0M136 144h16v16h-16zm0 0"/><path d="M480 192h-64v48h64c9 0 16-7 16-16v-16c0-9-7-16-16-16zm0 0M16 192c-9 0-16 7-16 16v16c0 9 7 16 16 16h64v-48zm0 0" fill="#f0bc5e"/></svg>