<svg height="496pt" viewBox="0 0 496 496" width="496pt" xmlns="http://www.w3.org/2000/svg"><g fill="#f0bc5e"><path d="m128 248h-28l-72.894531 64.800781c8.230469 12.792969 18.824219 23.894531 31.167969 32.734375l69.726562-61.984375zm0 0"/><path d="m112 424h256v40h-256zm0 0"/><path d="m208 104h224v-64h-192v32h-32zm0 0"/></g><path d="m496 248c0-19.3125-13.769531-35.472656-32-39.191406v-208.808594h-384v129.425781c-46.847656 19.03125-80 64.972657-80 118.574219s33.152344 99.542969 80 118.574219v129.425781h315.3125l68.6875-68.6875v-140.121094c18.230469-3.71875 32-19.878906 32-39.191406zm-400-232h352v192h-198.625c-17.160156-52.089844-66.144531-88-121.375-88-11.0625 0-21.753906 1.558594-32 4.214844zm144 256v-16h176v16zm-104-135.664062c43.238281 3.121093 81 31.273437 96.457031 71.664062h-1.914062l-57.871094 21.703125c-7.574219 2.847656-12.671875 10.199219-12.671875 18.296875s5.097656 15.449219 12.679688 18.304688l57.871093 21.695312h1.914063c-15.464844 40.390625-53.21875 68.542969-96.457032 71.664062v-223.328124zm42.3125 114.992187c-1.382812-.519531-2.3125-1.855469-2.3125-3.328125s.929688-2.808594 2.304688-3.320312l45.695312-17.136719v40.914062zm237.6875-11.328125h-176v-16h176zm-296-103.59375v103.59375h-103.59375c3.9375-55.367188 48.226562-99.65625 103.59375-103.59375zm-103.59375 119.59375h103.59375v103.59375c-55.367188-3.9375-99.65625-48.226562-103.59375-103.59375zm79.59375 115.785156c10.246094 2.65625 20.9375 4.214844 32 4.214844 55.230469 0 104.214844-35.910156 121.375-88h198.625v128h-64v64h-288zm340.6875 60.214844-36.6875 36.6875v-36.6875zm19.3125-160h-24v-48h24c13.230469 0 24 10.769531 24 24s-10.769531 24-24 24zm0 0"/><path d="m88 192h16v16h-16zm0 0"/><path d="m56 192h16v16h-16zm0 0"/><path d="m240 32h192v16h-192zm0 0"/><path d="m208 64h224v16h-224zm0 0"/><path d="m208 96h224v16h-224zm0 0"/><path d="m352 448h16v16h-16zm0 0"/><path d="m112 448h224v16h-224zm0 0"/><path d="m112 416h256v16h-256zm0 0"/></svg><svg height="661" viewBox="0 0 496 496" width="661" xmlns="http://www.w3.org/2000/svg"><g fill="#f0bc5e"><path d="M128 248h-28l-73 65c8 13 19 24 31 33l70-62zm0 0M112 424h256v40H112zm0 0M208 104h224V40H240v32h-32zm0 0"/></g><path d="M496 248c0-19-14-35-32-39V0H80v129a128 128 0 0 0 0 238v129h315l69-69V287c18-4 32-20 32-39zM96 16h352v192H249a128 128 0 0 0-153-84zm144 256v-16h176v16zM136 136c43 3 81 32 96 72h-1l-58 22c-8 3-13 10-13 18s5 15 13 18l58 22h1c-15 40-53 69-96 72V136zm42 115l-2-3 2-3 46-17v40zm238-11H240v-16h176zM120 136v104H16c4-55 49-100 104-104zM16 256h104v104c-55-4-100-49-104-104zm80 116a127 127 0 0 0 153-84h199v128h-64v64H96zm341 60l-37 37v-37zm19-160h-24v-48h24a24 24 0 0 1 0 48zm0 0"/><path d="M88 192h16v16H88zm0 0M56 192h16v16H56zm0 0M240 32h192v16H240zm0 0M208 64h224v16H208zm0 0M208 96h224v16H208zm0 0M352 448h16v16h-16zm0 0M112 448h224v16H112zm0 0M112 416h256v16H112zm0 0"/></svg>